<svg width="71" height="51" viewBox="0 0 71 51" fill="none" xmlns="http://www.w3.org/2000/svg">
<path fill-rule="evenodd" clip-rule="evenodd" d="M8.65376 9.62474C10.0704 9.62474 11.2178 8.47735 11.2178 7.06066C11.2178 5.64397 10.0704 4.49657 8.65376 4.49657C7.23707 4.49657 6.08967 5.64397 6.08967 7.06066C6.08967 8.47735 7.23707 9.62474 8.65376 9.62474ZM8.65376 13.4709C11.5255 13.4709 13.955 11.5831 14.7691 8.98368H17.471C17.6954 8.98368 17.9005 9.09906 18.0191 9.29137L19.2595 11.3266C18.0479 12.1568 17.3076 13.535 17.3076 15.0285V23.7276H12.5255C11.7114 21.1282 9.282 19.2404 6.41022 19.2404C2.86858 19.2404 0 22.1089 0 25.6506C0 29.1922 2.86858 32.0608 6.41022 32.0608C9.282 32.0608 11.7114 30.173 12.5255 27.5736H17.4486C17.8428 31.0928 19.0607 34.423 20.9518 37.3204C20.9518 37.3204 18.955 40.4743 18.0191 42.0095C17.9005 42.2018 17.6954 42.3172 17.471 42.3172H14.7691C13.955 39.7178 11.5255 37.83 8.65376 37.83C5.11212 37.83 2.24354 40.6985 2.24354 44.2402C2.24354 47.7818 5.11212 50.6504 8.65376 50.6504C11.5255 50.6504 13.955 48.7626 14.7691 46.1632H17.471C19.0351 46.1632 20.487 45.3491 21.3012 44.0126L23.4486 40.4901C25.189 42.3267 27.2498 43.8843 29.58 45.067L33.8973 47.2593C35.2274 47.9356 36.8075 47.9067 38.112 47.1792L41.6793 45.1952C43.7914 44.0189 45.6665 42.5317 47.2562 40.8074L49.2113 44.0124C50.0254 45.349 51.4773 46.1631 53.0414 46.1631H55.7434C56.5575 48.7624 58.9869 50.6503 61.8587 50.6503C65.4003 50.6503 68.2689 47.7817 68.2689 44.24C68.2689 40.6984 65.4003 37.8298 61.8587 37.8298C58.9869 37.8298 56.5575 39.7177 55.7434 42.317H53.0414C52.8171 42.317 52.6119 42.2016 52.4934 42.0093C51.5959 40.5382 49.7497 37.5542 49.7497 37.5542C51.6248 34.5767 52.801 31.1632 53.1183 27.5736H57.9869C58.801 30.1729 61.2305 32.0608 64.1022 32.0608C67.6439 32.0608 70.5125 29.1922 70.5125 25.6505C70.5125 22.1089 67.6439 19.2403 64.1022 19.2403C61.2305 19.2403 58.801 21.1281 57.9869 23.7275H53.2049V15.0285C53.2049 13.5349 52.4645 12.1567 51.253 11.3266L52.4934 9.29132C52.6119 9.09901 52.8171 8.98363 53.0414 8.98363H55.7434C56.5575 11.583 58.9869 13.4708 61.8587 13.4708C65.4003 13.4708 68.2689 10.6023 68.2689 7.06061C68.2689 3.51897 65.4003 0.650391 61.8587 0.650391C58.9869 0.650391 56.5575 2.53822 55.7434 5.13758H53.0414C51.4774 5.13758 50.0254 5.95169 49.2113 7.28822L47.8524 9.51902L37.3269 4.04787C36.0289 3.37159 34.484 3.37159 33.1859 4.04787L22.6604 9.51902L21.3015 7.28822C20.4874 5.95169 19.0355 5.13758 17.4713 5.13758H14.7694C13.9553 2.53822 11.5259 0.650391 8.65409 0.650391C5.11245 0.650391 2.24387 3.51897 2.24387 7.06061C2.24387 10.6023 5.11212 13.4709 8.65376 13.4709ZM59.2947 7.06066C59.2947 8.47735 60.4421 9.62474 61.8588 9.62474C63.2755 9.62474 64.4229 8.47735 64.4229 7.06066C64.4229 5.64397 63.2755 4.49657 61.8588 4.49657C60.4421 4.49657 59.2947 5.64397 59.2947 7.06066ZM61.5383 25.6501C61.5383 27.0668 62.6857 28.2142 64.1024 28.2142C65.5191 28.2142 66.6665 27.0668 66.6665 25.6501C66.6665 24.2334 65.5191 23.086 64.1024 23.086C62.6857 23.086 61.5383 24.2334 61.5383 25.6501ZM59.2947 44.2395C59.2947 42.8228 60.4421 41.6754 61.8588 41.6754C63.2755 41.6754 64.4229 42.8228 64.4229 44.2395C64.4229 45.6562 63.2755 46.8036 61.8588 46.8036C60.4421 46.8036 59.2947 45.6562 59.2947 44.2395ZM8.97458 25.6501C8.97458 27.0668 7.82718 28.2142 6.41049 28.2142C4.9938 28.2142 3.8464 27.0668 3.8464 25.6501C3.8464 24.2334 4.9938 23.086 6.41049 23.086C7.82718 23.086 8.97458 24.2334 8.97458 25.6501ZM11.2182 44.2395C11.2182 42.8228 10.0708 41.6754 8.65409 41.6754C7.2374 41.6754 6.09 42.8228 6.09 44.2395C6.09 45.6562 7.2374 46.8036 8.65409 46.8036C10.0708 46.8036 11.2182 45.6562 11.2182 44.2395ZM34.962 7.45778C35.1479 7.36163 35.3659 7.36163 35.5518 7.45778L49.013 14.4577C49.2246 14.5699 49.3592 14.7878 49.3592 15.0282V25.589C49.3592 32.3358 45.7054 38.5538 39.8077 41.8358L36.2403 43.8198C36.0544 43.9224 35.8301 43.9256 35.641 43.8294L31.3237 41.6371C25.0833 38.4673 21.1535 32.0634 21.1535 25.0637V15.0289C21.1535 14.7885 21.2881 14.5706 21.4997 14.4584L34.962 7.45778ZM32.6928 19.8811H37.821V19.2401C37.821 17.8234 36.6736 16.676 35.2569 16.676C33.8402 16.676 32.6928 17.8234 32.6928 19.2401V19.8811ZM41.6676 19.9452V19.2401C41.6676 15.6984 38.799 12.8298 35.2573 12.8298C31.7157 12.8298 28.8471 15.6984 28.8471 19.2401V19.9452C27.3856 20.2433 26.283 21.5349 26.283 23.0862V32.0609C26.283 33.8301 27.7189 35.266 29.4881 35.266H41.0261C42.7953 35.266 44.2312 33.8301 44.2312 32.0609V23.0862C44.2312 21.5349 43.129 20.2433 41.6676 19.9452ZM39.331 23.7272H30.129V31.4195H40.3853V23.7272H39.331Z" fill="black"/>
</svg>
