<svg width="18" height="21" viewBox="0 0 18 21" fill="none" xmlns="http://www.w3.org/2000/svg">
<path d="M0 3.9375C0 3.21152 0.574554 2.625 1.28571 2.625H16.7143C17.4254 2.625 18 3.21152 18 3.9375C18 4.66348 17.4254 5.25 16.7143 5.25H1.28571C0.574554 5.25 0 4.66348 0 3.9375ZM0 10.5C0 9.77402 0.574554 9.1875 1.28571 9.1875H16.7143C17.4254 9.1875 18 9.77402 18 10.5C18 11.226 17.4254 11.8125 16.7143 11.8125H1.28571C0.574554 11.8125 0 11.226 0 10.5ZM18 17.0625C18 17.7885 17.4254 18.375 16.7143 18.375H1.28571C0.574554 18.375 0 17.7885 0 17.0625C0 16.3365 0.574554 15.75 1.28571 15.75H16.7143C17.4254 15.75 18 16.3365 18 17.0625Z" fill="black"/>
</svg>
