<svg width="338" height="338" viewBox="0 0 338 338" fill="none" xmlns="http://www.w3.org/2000/svg">
<path d="M311.127 269.759C309.514 269.759 308.192 268.45 308.192 266.828V11.112C308.192 8.3384 305.93 6.0681 303.14 6.0681H34.8485C32.0705 6.0681 29.7965 8.32722 29.7965 11.112V266.828C29.7965 268.439 28.4859 269.759 26.8617 269.759C25.2374 269.759 23.9268 268.45 23.9268 266.828V11.112C23.9268 5.1063 28.822 0.218994 34.8373 0.218994H303.152C309.167 0.218994 314.062 5.1063 314.062 11.112V266.828C314.062 268.45 312.751 269.759 311.127 269.759Z" fill="black"/>
<path d="M311.127 42.5048H26.8729C25.2598 42.5048 23.938 41.1963 23.938 39.5746C23.938 37.953 25.2486 36.6445 26.8729 36.6445H311.138C312.751 36.6445 314.073 37.953 314.073 39.5746C314.073 41.1963 312.751 42.5048 311.127 42.5048Z" fill="black"/>
<path d="M51.0237 32.719C44.9412 32.719 39.9901 27.7758 39.9901 21.703C39.9901 15.6302 44.9412 10.687 51.0237 10.687C57.1063 10.687 62.0574 15.6302 62.0574 21.703C62.0574 27.7758 57.1175 32.719 51.0237 32.719ZM51.0237 16.5361C48.1673 16.5361 45.8485 18.8511 45.8485 21.703C45.8485 24.5548 48.1673 26.8699 51.0237 26.8699C53.8802 26.8699 56.1989 24.5548 56.1989 21.703C56.1989 18.8511 53.8802 16.5361 51.0237 16.5361Z" fill="black"/>
<path d="M82.1085 32.719C76.0259 32.719 71.0748 27.7758 71.0748 21.703C71.0748 15.6302 76.0259 10.687 82.1085 10.687C88.191 10.687 93.1421 15.6302 93.1421 21.703C93.1421 27.7758 88.191 32.719 82.1085 32.719ZM82.1085 16.5361C79.252 16.5361 76.9333 18.8511 76.9333 21.703C76.9333 24.5548 79.252 26.8699 82.1085 26.8699C84.9649 26.8699 87.2836 24.5548 87.2836 21.703C87.2836 18.8511 84.9649 16.5361 82.1085 16.5361Z" fill="black"/>
<path d="M112.88 32.719C106.797 32.719 101.846 27.7758 101.846 21.703C101.846 15.6302 106.797 10.687 112.88 10.687C118.962 10.687 123.913 15.6302 123.913 21.703C123.913 27.7758 118.973 32.719 112.88 32.719ZM112.88 16.5361C110.023 16.5361 107.704 18.8511 107.704 21.703C107.704 24.5548 110.023 26.8699 112.88 26.8699C115.736 26.8699 118.055 24.5548 118.055 21.703C118.055 18.8511 115.736 16.5361 112.88 16.5361Z" fill="black"/>
<path d="M335.065 269.759H2.93485C1.3218 269.759 0 268.45 0 266.828C0 265.207 1.3106 263.898 2.93485 263.898H335.065C336.678 263.898 338 265.207 338 266.828C338 268.45 336.678 269.759 335.065 269.759Z" fill="black"/>
<path d="M325.297 292.294H12.7027C5.70166 292.294 0 286.601 0 279.611V126.607C0 119.617 5.70166 113.924 12.7027 113.924H26.8617C28.4747 113.924 29.7965 115.233 29.7965 116.854C29.7965 118.465 28.4859 119.784 26.8617 119.784H12.7027C8.92775 119.784 5.86969 122.849 5.86969 126.607V279.611C5.86969 283.38 8.93895 286.434 12.7027 286.434H325.297C329.072 286.434 332.13 283.369 332.13 279.611V126.607C332.13 122.838 329.061 119.784 325.297 119.784H311.127C309.514 119.784 308.192 118.476 308.192 116.854C308.192 115.233 309.503 113.924 311.127 113.924H325.297C332.298 113.924 338 119.617 338 126.607V279.611C338 286.601 332.298 292.294 325.297 292.294Z" fill="black"/>
<path d="M221.715 314.784C220.102 314.784 218.78 313.476 218.78 311.854V289.353C218.78 287.742 220.091 286.422 221.715 286.422C223.339 286.422 224.65 287.731 224.65 289.353V311.854C224.65 313.476 223.339 314.784 221.715 314.784Z" fill="black"/>
<path d="M116.117 314.784C114.504 314.784 113.182 313.476 113.182 311.854V289.353C113.182 287.742 114.493 286.422 116.117 286.422C117.741 286.422 119.052 287.731 119.052 289.353V311.854C119.04 313.476 117.73 314.784 116.117 314.784Z" fill="black"/>
<path d="M238.574 337.219H99.2582C91.4507 337.219 85.0993 330.878 85.0993 323.083C85.0993 315.288 91.4507 308.946 99.2582 308.946H238.574C246.381 308.946 252.733 315.288 252.733 323.083C252.733 330.878 246.381 337.219 238.574 337.219ZM99.2582 314.784C94.6768 314.784 90.9578 318.509 90.9578 323.072C90.9578 327.635 94.688 331.359 99.2582 331.359H238.574C243.155 331.359 246.874 327.635 246.874 323.072C246.874 318.509 243.144 314.784 238.574 314.784H99.2582Z" fill="black"/>
<path d="M178.286 234.485H159.714C155.188 234.485 151.514 230.817 151.514 226.299V218.436C144.95 216.904 139.08 214.41 132.594 210.418L127.162 216.065C125.627 217.665 123.544 218.559 121.326 218.582C121.303 218.582 121.27 218.582 121.247 218.582C119.052 218.582 117.002 217.732 115.445 216.177L103.941 204.669C100.759 201.482 100.748 196.304 103.929 193.116L109.799 187.223C105.946 180.993 103.257 174.551 101.611 167.629H92.7501C88.2246 167.629 84.5504 163.96 84.5504 159.442V143.807C84.5504 139.289 88.2246 135.621 92.7501 135.621H101.476C103.1 128.508 105.755 121.965 109.541 115.747L103.773 109.92C100.625 106.733 100.636 101.566 103.795 98.4012L115.254 86.8931C116.8 85.3385 118.861 84.4774 121.068 84.4774C121.079 84.4774 121.09 84.4774 121.102 84.4774C123.308 84.4886 125.381 85.3609 126.926 86.9378L132.236 92.3507C138.699 88.3246 144.804 85.7188 151.514 84.1307V76.9507C151.514 72.4325 155.188 68.7642 159.714 68.7642H178.286C180.482 68.7642 182.532 69.6142 184.089 71.1575C185.646 72.7009 186.486 74.7587 186.486 76.9507V84.3208C191.639 85.9425 199.267 88.6936 205.518 92.3731L210.435 87.1615C211.97 85.5398 214.053 84.6228 216.282 84.5892C218.523 84.5557 220.629 85.4168 222.208 86.9937L233.69 98.4794C236.86 101.656 236.871 106.834 233.712 110.021L228.033 115.747C231.864 122.021 234.53 128.564 236.143 135.621H245.261C249.787 135.621 253.461 139.289 253.461 143.807V159.442C253.461 163.96 249.787 167.629 245.261 167.629H236.009C234.362 174.63 231.696 181.071 227.899 187.223L233.858 193.195C237.028 196.371 237.028 201.549 233.869 204.736L222.488 216.2C220.931 217.765 218.87 218.626 216.663 218.626C216.652 218.626 216.63 218.626 216.618 218.626C214.401 218.615 212.328 217.732 210.782 216.144L205.204 210.406C199.009 214.019 191.549 216.681 186.497 218.246V226.299C186.486 230.817 182.812 234.485 178.286 234.485ZM132.146 203.741C132.695 203.741 133.255 203.897 133.748 204.222C141.175 209.064 147.526 211.748 154.998 213.202C156.376 213.471 157.373 214.679 157.373 216.077V226.31C157.373 227.596 158.426 228.647 159.714 228.647H178.286C179.574 228.647 180.627 227.596 180.627 226.31V216.077C180.627 214.779 181.49 213.627 182.733 213.269C187.785 211.793 197.273 208.662 204.061 204.233C205.238 203.461 206.795 203.64 207.769 204.647L214.983 212.062C215.42 212.52 216.014 212.766 216.652 212.766H216.663C217.291 212.766 217.884 212.52 218.321 212.073L229.702 200.609C230.609 199.704 230.598 198.227 229.702 197.321L222.096 189.683C221.11 188.699 220.965 187.167 221.726 186.003C226.23 179.226 229.187 172.069 230.777 164.128C231.046 162.764 232.256 161.779 233.656 161.779H245.272C246.561 161.779 247.614 160.728 247.614 159.442V143.807C247.614 142.521 246.561 141.47 245.272 141.47H233.779C232.379 141.47 231.169 140.474 230.901 139.099C229.355 131.125 226.409 123.878 221.861 116.944C221.099 115.792 221.256 114.26 222.23 113.287L229.545 105.917C230.453 105.011 230.441 103.534 229.545 102.617L218.063 91.1093C217.615 90.662 217.01 90.4159 216.372 90.4271C215.733 90.4383 215.14 90.6955 214.703 91.1653L208.139 98.1216C207.164 99.1617 205.574 99.3406 204.386 98.5577C197.598 94.0619 187.897 90.8186 182.722 89.2864C181.479 88.9173 180.627 87.7766 180.627 86.4793V76.9507C180.627 76.3244 180.381 75.7429 179.944 75.2955C179.507 74.8594 178.914 74.6133 178.286 74.6133H159.714C158.426 74.6133 157.373 75.6646 157.373 76.9507V86.4793C157.373 87.8772 156.387 89.0739 155.009 89.3535C147.403 90.8521 140.749 93.6816 133.423 98.5353C132.247 99.307 130.69 99.1505 129.716 98.1439L122.737 91.0199C122.3 90.5725 121.706 90.3265 121.079 90.3153H121.068C120.441 90.3153 119.858 90.5613 119.41 90.9975L107.951 102.506C107.055 103.411 107.043 104.888 107.94 105.794L115.333 113.276C116.307 114.26 116.453 115.781 115.702 116.933C111.222 123.777 108.287 131.024 106.73 139.088C106.461 140.463 105.251 141.459 103.851 141.459H92.7501C91.4619 141.459 90.4089 142.51 90.4089 143.796V159.431C90.4089 160.717 91.4619 161.768 92.7501 161.768H103.974C105.374 161.768 106.573 162.752 106.853 164.117C108.421 171.934 111.401 179.092 115.982 185.992C116.755 187.144 116.598 188.688 115.613 189.672L108.096 197.232C107.189 198.138 107.189 199.625 108.096 200.531L119.601 212.039C120.049 212.487 120.631 212.721 121.258 212.721C121.27 212.721 121.27 212.721 121.281 212.721C121.919 212.71 122.502 212.464 122.95 212.006L130.041 204.636C130.601 204.043 131.374 203.741 132.146 203.741Z" fill="black"/>
<path d="M168.933 205.396C164.374 205.396 159.837 204.815 155.39 203.663C148.411 201.851 141.948 198.686 136.179 194.268C130.41 189.851 125.683 184.427 122.132 178.164C118.693 172.113 116.498 165.537 115.59 158.614C114.683 151.692 115.109 144.769 116.867 138.036C118.682 131.069 121.852 124.616 126.277 118.856C130.701 113.097 136.134 108.377 142.407 104.832C148.467 101.398 155.054 99.2064 161.988 98.3005C168.922 97.3946 175.855 97.8196 182.599 99.5754C189.578 101.387 196.041 104.552 201.81 108.97C207.579 113.387 212.306 118.811 215.857 125.074C219.296 131.125 221.491 137.701 222.398 144.624C223.306 151.546 222.88 158.469 221.122 165.202C219.307 172.169 216.137 178.622 211.712 184.382C207.287 190.141 201.855 194.861 195.582 198.406C189.522 201.84 182.935 204.032 176.001 204.938C173.649 205.24 171.285 205.396 168.933 205.396ZM169.056 103.713C154.639 103.713 140.38 110.155 130.937 122.424C123.129 132.579 119.746 145.16 121.415 157.843C123.084 170.536 129.604 181.821 139.764 189.616C160.756 205.709 190.944 201.761 207.063 180.803C223.183 159.845 219.228 129.704 198.236 113.611C189.544 106.946 179.261 103.713 169.056 103.713Z" fill="black"/>
<path d="M149.274 172.639C148.501 172.639 147.717 172.337 147.145 171.722L130.007 153.627C128.943 152.497 128.943 150.73 130.007 149.612L147.145 131.517C148.254 130.342 150.114 130.286 151.29 131.405C152.466 132.512 152.522 134.368 151.402 135.543L136.168 151.625L151.402 167.707C152.511 168.881 152.466 170.738 151.29 171.845C150.719 172.371 150.002 172.639 149.274 172.639Z" fill="black"/>
<path d="M188.726 172.639C188.009 172.639 187.281 172.37 186.71 171.834C185.534 170.726 185.478 168.87 186.598 167.696L201.832 151.613L186.598 135.531C185.489 134.357 185.534 132.5 186.71 131.393C187.886 130.286 189.746 130.331 190.855 131.505L207.993 149.6C209.057 150.73 209.057 152.497 207.993 153.615L190.855 171.711C190.283 172.326 189.499 172.639 188.726 172.639Z" fill="black"/>
<path d="M161.338 184.181C161.092 184.181 160.845 184.147 160.599 184.091C159.031 183.688 158.09 182.089 158.493 180.523L173.817 121.261C174.22 119.695 175.822 118.756 177.39 119.158C178.958 119.561 179.899 121.16 179.496 122.726L164.172 181.989C163.836 183.297 162.649 184.181 161.338 184.181Z" fill="black"/>
<path d="M111.457 97.7637C110.706 97.7637 109.956 97.4729 109.385 96.9025L83.2622 70.822H66.4485C64.8354 70.822 63.5136 69.5135 63.5136 67.8919C63.5136 66.2702 64.8242 64.9617 66.4485 64.9617H84.472C85.2449 64.9617 85.9954 65.2749 86.5443 65.8229L113.518 92.7534C114.661 93.8941 114.661 95.7506 113.518 96.8913C112.958 97.4729 112.207 97.7637 111.457 97.7637Z" fill="black"/>
<path d="M55.8965 81.3683C48.4585 81.3683 42.4096 75.3291 42.4096 67.9031C42.4096 60.477 48.4585 54.4378 55.8965 54.4378C63.3344 54.4378 69.3833 60.477 69.3833 67.9031C69.3833 75.3291 63.3344 81.3683 55.8965 81.3683ZM55.8965 60.2869C51.6846 60.2869 48.2681 63.7091 48.2681 67.9031C48.2681 72.097 51.6958 75.5192 55.8965 75.5192C60.0971 75.5192 63.5248 72.097 63.5248 67.9031C63.5248 63.7091 60.0971 60.2869 55.8965 60.2869Z" fill="black"/>
<path d="M86.1075 238.545H66.4597C64.8466 238.545 63.5248 237.236 63.5248 235.615C63.5248 233.993 64.8354 232.684 66.4597 232.684H84.8977L110.527 207.096C111.67 205.955 113.529 205.955 114.672 207.096C115.814 208.237 115.814 210.093 114.672 211.234L88.1798 237.684C87.6309 238.243 86.8804 238.545 86.1075 238.545Z" fill="black"/>
<path d="M55.8965 249.091C48.4585 249.091 42.4096 243.052 42.4096 235.626C42.4096 228.2 48.4585 222.161 55.8965 222.161C63.3344 222.161 69.3833 228.2 69.3833 235.626C69.3833 243.052 63.3344 249.091 55.8965 249.091ZM55.8965 228.01C51.6846 228.01 48.2681 231.432 48.2681 235.626C48.2681 239.82 51.6958 243.242 55.8965 243.242C60.0971 243.242 63.5248 239.82 63.5248 235.626C63.5248 231.432 60.0971 228.01 55.8965 228.01Z" fill="black"/>
<path d="M55.8965 165.269C48.4585 165.269 42.4096 159.23 42.4096 151.804C42.4096 144.378 48.4585 138.338 55.8965 138.338C63.3344 138.338 69.3833 144.378 69.3833 151.804C69.3833 159.23 63.3344 165.269 55.8965 165.269ZM55.8965 144.176C51.6846 144.176 48.2681 147.598 48.2681 151.792C48.2681 155.986 51.6958 159.409 55.8965 159.409C60.0971 159.409 63.5248 155.986 63.5248 151.792C63.5248 147.598 60.0971 144.176 55.8965 144.176Z" fill="black"/>
<path d="M87.4741 154.723H66.4597C64.8466 154.723 63.5248 153.414 63.5248 151.792C63.5248 150.171 64.8354 148.862 66.4597 148.862H87.4741C89.0871 148.862 90.4089 150.171 90.4089 151.792C90.4089 153.414 89.0983 154.723 87.4741 154.723Z" fill="black"/>
<path d="M271.552 238.545H253.528C252.755 238.545 252.005 238.232 251.456 237.684L224.112 210.384C222.97 209.243 222.97 207.387 224.112 206.246C225.255 205.105 227.114 205.105 228.257 206.246L254.749 232.696H271.563C273.176 232.696 274.498 234.004 274.498 235.626C274.498 237.247 273.165 238.545 271.552 238.545Z" fill="black"/>
<path d="M282.104 249.091C274.666 249.091 268.617 243.052 268.617 235.626C268.617 228.2 274.666 222.161 282.104 222.161C289.541 222.161 295.59 228.2 295.59 235.626C295.59 243.052 289.541 249.091 282.104 249.091ZM282.104 228.01C277.892 228.01 274.475 231.432 274.475 235.626C274.475 239.82 277.903 243.242 282.104 243.242C286.304 243.242 289.732 239.82 289.732 235.626C289.732 231.432 286.315 228.01 282.104 228.01Z" fill="black"/>
<path d="M225.412 97.2604C224.661 97.2604 223.911 96.9696 223.339 96.3993C222.197 95.2585 222.197 93.402 223.339 92.2613L249.82 65.8229C250.369 65.2749 251.12 64.9617 251.893 64.9617H271.54C273.153 64.9617 274.475 66.2702 274.475 67.8919C274.475 69.5135 273.165 70.822 271.54 70.822H253.102L227.484 96.3993C226.913 96.9808 226.162 97.2604 225.412 97.2604Z" fill="black"/>
<path d="M282.104 81.3683C274.666 81.3683 268.617 75.3291 268.617 67.9031C268.617 60.477 274.666 54.4378 282.104 54.4378C289.541 54.4378 295.59 60.477 295.59 67.9031C295.59 75.3291 289.541 81.3683 282.104 81.3683ZM282.104 60.2869C277.892 60.2869 274.475 63.7091 274.475 67.9031C274.475 72.097 277.903 75.5192 282.104 75.5192C286.304 75.5192 289.732 72.097 289.732 67.9031C289.732 63.7091 286.315 60.2869 282.104 60.2869Z" fill="black"/>
<path d="M282.104 165.191C274.666 165.191 268.617 159.151 268.617 151.725C268.617 144.299 274.666 138.26 282.104 138.26C289.541 138.26 295.59 144.299 295.59 151.725C295.59 159.151 289.541 165.191 282.104 165.191ZM282.104 144.109C277.892 144.109 274.475 147.531 274.475 151.725C274.475 155.919 277.903 159.341 282.104 159.341C286.304 159.341 289.732 155.919 289.732 151.725C289.732 147.531 286.315 144.109 282.104 144.109Z" fill="black"/>
<path d="M271.552 154.655H250.537C248.924 154.655 247.602 153.347 247.602 151.725C247.602 150.104 248.913 148.795 250.537 148.795H271.552C273.165 148.795 274.486 150.104 274.486 151.725C274.486 153.347 273.165 154.655 271.552 154.655Z" fill="black"/>
<path d="M168.966 74.5462C167.353 74.5462 166.032 73.2377 166.032 71.6161V61.0698C166.032 59.4593 167.342 58.1396 168.966 58.1396H195.302C196.915 58.1396 198.236 59.4481 198.236 61.0698C198.236 62.6914 196.926 63.9999 195.302 63.9999H171.901V71.6161C171.901 73.2377 170.579 74.5462 168.966 74.5462Z" fill="black"/>
<path d="M205.865 74.5462C198.427 74.5462 192.378 68.507 192.378 61.081C192.378 53.655 198.427 47.6157 205.865 47.6157C213.303 47.6157 219.352 53.655 219.352 61.081C219.352 68.507 213.303 74.5462 205.865 74.5462ZM205.865 53.4648C201.653 53.4648 198.236 56.8871 198.236 61.081C198.236 65.2749 201.664 68.6971 205.865 68.6971C210.065 68.6971 213.493 65.2749 213.493 61.081C213.493 56.8871 210.065 53.4648 205.865 53.4648Z" fill="black"/>
<path d="M169.717 247.033H143.382C141.769 247.033 140.447 245.725 140.447 244.103C140.447 242.481 141.757 241.173 143.382 241.173H166.782V231.555C166.782 229.944 168.093 228.625 169.717 228.625C171.33 228.625 172.652 229.933 172.652 231.555V244.103C172.652 245.725 171.341 247.033 169.717 247.033Z" fill="black"/>
<path d="M132.83 257.568C125.392 257.568 119.343 251.529 119.343 244.103C119.343 236.677 125.392 230.638 132.83 230.638C140.268 230.638 146.317 236.677 146.317 244.103C146.317 251.529 140.268 257.568 132.83 257.568ZM132.83 236.487C128.618 236.487 125.201 239.909 125.201 244.103C125.201 248.297 128.629 251.719 132.83 251.719C137.03 251.719 140.458 248.297 140.458 244.103C140.458 239.909 137.03 236.487 132.83 236.487Z" fill="black"/>
</svg>
