<svg width="62" height="51" viewBox="0 0 62 51" fill="none" xmlns="http://www.w3.org/2000/svg">
<path fill-rule="evenodd" clip-rule="evenodd" d="M50.2358 33.2528L49.4632 33.1464C47.9347 32.9428 46.4843 32.4594 45.2235 31.7332L44.5263 31.3533C44.2293 31.1825 43.8736 31.0907 43.5088 31.0907C43.144 31.0907 42.7883 31.1825 42.4913 31.3533L41.7941 31.7332C40.5115 32.4685 39.0341 32.9523 37.479 33.1464L36.7064 33.2528C36.2904 33.307 35.912 33.4791 35.6391 33.7382C35.3663 33.9972 35.2169 34.3262 35.2178 34.666V40.1214C35.2362 41.2939 35.6747 42.4371 36.4804 43.4131C37.2862 44.3892 38.4248 45.1564 39.759 45.6224L42.7928 46.7013C43.0183 46.7817 43.2622 46.8233 43.5088 46.8233C43.7554 46.8233 43.9993 46.7817 44.2248 46.7013L47.2586 45.6224C48.5893 45.1542 49.724 44.3859 50.5262 43.41C51.3285 42.4342 51.7642 41.2922 51.7809 40.1214V34.666C51.784 34.3185 51.6281 33.9822 51.343 33.7215C51.058 33.4608 50.6638 33.2939 50.2358 33.2528ZM48.1819 40.1214C48.1721 40.7398 47.9386 41.3424 47.5102 41.8553C47.0817 42.3682 46.4769 42.7691 45.77 43.0087L43.4523 43.8293L41.1157 43.0087C40.4137 42.7652 39.8142 42.3629 39.3895 41.8506C38.9649 41.3382 38.7332 40.7377 38.7226 40.1214V35.8209C40.3987 35.5453 42.0004 35.0307 43.4523 34.3013C44.9042 35.0307 46.5058 35.5453 48.1819 35.8209V40.1214Z" fill="black"/>
<path fill-rule="evenodd" clip-rule="evenodd" d="M10.6464 11.6744C10.2961 11.6744 9.9536 11.7582 9.66232 11.9151C9.37104 12.0721 9.14401 12.2952 9.00995 12.5562C8.87589 12.8172 8.84081 13.1044 8.90915 13.3815C8.9775 13.6586 9.14619 13.9131 9.39391 14.1129C9.64162 14.3126 9.95723 14.4487 10.3008 14.5038C10.6444 14.5589 11.0006 14.5306 11.3242 14.4225C11.6479 14.3144 11.9245 14.1313 12.1191 13.8964C12.3137 13.6615 12.4176 13.3853 12.4176 13.1028C12.4176 12.724 12.231 12.3606 11.8988 12.0928C11.5667 11.8249 11.1161 11.6744 10.6464 11.6744Z" fill="black"/>
<path fill-rule="evenodd" clip-rule="evenodd" d="M17.7314 11.6744C17.3811 11.6744 17.0386 11.7582 16.7473 11.9151C16.456 12.0721 16.229 12.2952 16.0949 12.5562C15.9609 12.8172 15.9258 13.1044 15.9942 13.3815C16.0625 13.6586 16.2312 13.9131 16.4789 14.1129C16.7266 14.3126 17.0422 14.4487 17.3858 14.5038C17.7294 14.5589 18.0855 14.5306 18.4092 14.4225C18.7329 14.3144 19.0095 14.1313 19.2041 13.8964C19.3987 13.6615 19.5026 13.3853 19.5026 13.1028C19.5026 12.724 19.316 12.3606 18.9838 12.0928C18.6517 11.8249 18.2011 11.6744 17.7314 11.6744Z" fill="black"/>
<path fill-rule="evenodd" clip-rule="evenodd" d="M10.6464 26.7945C10.2961 26.7945 9.9536 26.8783 9.66232 27.0352C9.37104 27.1922 9.14401 27.4153 9.00995 27.6763C8.87589 27.9373 8.84081 28.2245 8.90915 28.5016C8.9775 28.7787 9.14619 29.0332 9.39391 29.233C9.64162 29.4328 9.95723 29.5688 10.3008 29.6239C10.6444 29.679 11.0006 29.6507 11.3242 29.5426C11.6479 29.4345 11.9245 29.2514 12.1191 29.0165C12.3137 28.7816 12.4176 28.5055 12.4176 28.2229C12.4176 27.8441 12.231 27.4808 11.8988 27.2129C11.5667 26.945 11.1161 26.7945 10.6464 26.7945Z" fill="black"/>
<path fill-rule="evenodd" clip-rule="evenodd" d="M17.7314 26.7945C17.3811 26.7945 17.0386 26.8783 16.7473 27.0352C16.456 27.1922 16.229 27.4153 16.0949 27.6763C15.9609 27.9373 15.9258 28.2245 15.9942 28.5016C16.0625 28.7787 16.2312 29.0332 16.4789 29.233C16.7266 29.4328 17.0422 29.5688 17.3858 29.6239C17.7294 29.679 18.0855 29.6507 18.4092 29.5426C18.7329 29.4345 19.0095 29.2514 19.2041 29.0165C19.3987 28.7816 19.5026 28.5055 19.5026 28.2229C19.5026 27.8441 19.316 27.4808 18.9838 27.2129C18.6517 26.945 18.2011 26.7945 17.7314 26.7945Z" fill="black"/>
<path fill-rule="evenodd" clip-rule="evenodd" d="M10.6464 41.8994C10.2961 41.8994 9.9536 41.9832 9.66232 42.1402C9.37104 42.2971 9.14401 42.5202 9.00995 42.7812C8.87589 43.0423 8.84081 43.3295 8.90915 43.6066C8.9775 43.8836 9.14619 44.1382 9.39391 44.3379C9.64162 44.5377 9.95723 44.6737 10.3008 44.7289C10.6444 44.784 11.0006 44.7557 11.3242 44.6476C11.6479 44.5395 11.9245 44.3564 12.1191 44.1215C12.3137 43.8866 12.4176 43.6104 12.4176 43.3279C12.4176 42.949 12.231 42.5857 11.8988 42.3178C11.5667 42.0499 11.1161 41.8994 10.6464 41.8994Z" fill="black"/>
<path fill-rule="evenodd" clip-rule="evenodd" d="M17.7314 41.8994C17.3811 41.8994 17.0386 41.9832 16.7473 42.1402C16.456 42.2971 16.229 42.5202 16.0949 42.7812C15.9609 43.0423 15.9258 43.3295 15.9942 43.6066C16.0625 43.8836 16.2312 44.1382 16.4789 44.3379C16.7266 44.5377 17.0422 44.6737 17.3858 44.7289C17.7294 44.784 18.0855 44.7557 18.4092 44.6476C18.7329 44.5395 19.0095 44.3564 19.2041 44.1215C19.3987 43.8866 19.5026 43.6104 19.5026 43.3279C19.5026 42.949 19.316 42.5857 18.9838 42.3178C18.6517 42.0499 18.2011 41.8994 17.7314 41.8994Z" fill="black"/>
<path fill-rule="evenodd" clip-rule="evenodd" d="M52.8744 0.869995H9.12562C6.70536 0.869995 4.38422 1.64536 2.67283 3.02551C0.961447 4.40566 0 6.27754 0 8.22937V43.5106C0 45.4625 0.961447 47.3343 2.67283 48.7145C4.38422 50.0946 6.70536 50.87 9.12562 50.87H52.8744C55.2946 50.87 57.6158 50.0946 59.3272 48.7145C61.0386 47.3343 62 45.4625 62 43.5106V8.22937C62 6.27754 61.0386 4.40566 59.3272 3.02551C57.6158 1.64536 55.2946 0.869995 52.8744 0.869995ZM30.0312 25.0887C29.1827 25.7681 28.5095 26.5763 28.0505 27.4667C27.5916 28.3571 27.3561 29.312 27.3575 30.2762V32.245H3.6425V19.495H58.3575V22.9325H36.4637C35.2681 22.9313 34.084 23.1213 32.9799 23.4914C31.8758 23.8615 30.8736 24.4044 30.0312 25.0887ZM3.6425 8.22937C3.6425 7.05662 4.22018 5.93189 5.24847 5.10263C6.27675 4.27337 7.67141 3.8075 9.12562 3.8075H52.8744C54.3286 3.8075 55.7232 4.27337 56.7515 5.10263C57.7798 5.93189 58.3575 7.05662 58.3575 8.22937V16.495H3.6425V8.22937ZM3.6425 43.5106V35.245H27.3575V47.995H9.12562C8.399 47.9951 7.67961 47.8786 7.00927 47.6525C6.33892 47.4264 5.73099 47.0951 5.22081 46.6778C4.71063 46.2606 4.30837 45.7657 4.03742 45.222C3.76647 44.6783 3.63223 44.0966 3.6425 43.5106ZM58.3575 43.5106C58.3575 44.6834 57.7798 45.8081 56.7515 46.6374C55.7232 47.4666 54.3286 47.9325 52.8744 47.9325H31V30.2762C31.0051 29.1089 31.5824 27.9905 32.6059 27.1651C33.6295 26.3397 35.0162 25.8741 36.4637 25.87H58.3575V43.5106Z" fill="black"/>
<path fill-rule="evenodd" clip-rule="evenodd" d="M47.8804 11.6592H38.7603C38.3196 11.6958 37.9114 11.8629 37.6147 12.1282C37.3179 12.3934 37.1536 12.738 37.1536 13.0952C37.1536 13.4525 37.3179 13.7971 37.6147 14.0623C37.9114 14.3276 38.3196 14.4947 38.7603 14.5313H47.8804C48.3211 14.4947 48.7293 14.3276 49.026 14.0623C49.3228 13.7971 49.4871 13.4525 49.4871 13.0952C49.4871 12.738 49.3228 12.3934 49.026 12.1282C48.7293 11.8629 48.3211 11.6958 47.8804 11.6592Z" fill="black"/>
</svg>
