<svg width="20" height="13" viewBox="0 0 20 13" fill="none" xmlns="http://www.w3.org/2000/svg">
<path d="M1.63612 0.103517H18.7366C18.9097 0.103975 19.0794 0.144257 19.2275 0.220027C19.3755 0.295797 19.4962 0.404185 19.5766 0.533525C19.657 0.662866 19.6941 0.808262 19.6839 0.95406C19.6736 1.09986 19.6164 1.24054 19.5185 1.36096L10.9682 11.7795C10.6139 12.2115 9.76075 12.2115 9.40544 11.7795L0.855197 1.36096C0.756228 1.24079 0.69819 1.10004 0.687389 0.953997C0.676588 0.807956 0.713437 0.662211 0.793933 0.532596C0.874429 0.402981 0.995493 0.294454 1.14397 0.218807C1.29245 0.14316 1.46266 0.103286 1.63612 0.103517Z" fill="black"/>
</svg>
