<svg width="25" height="26" viewBox="0 0 25 26" fill="none" xmlns="http://www.w3.org/2000/svg">
<path d="M7.25 0.137695H17.75C21.75 0.137695 25 3.3877 25 7.38769V17.8877C25 19.8105 24.2362 21.6546 22.8765 23.0142C21.5169 24.3739 19.6728 25.1377 17.75 25.1377H7.25C3.25 25.1377 0 21.8877 0 17.8877V7.38769C0 5.46488 0.763837 3.62081 2.12348 2.26117C3.48311 0.901533 5.32718 0.137695 7.25 0.137695ZM7 2.6377C5.80653 2.6377 4.66193 3.1118 3.81802 3.95571C2.97411 4.79963 2.5 5.94422 2.5 7.13769V18.1377C2.5 20.6252 4.5125 22.6377 7 22.6377H18C19.1935 22.6377 20.3381 22.1636 21.182 21.3197C22.0259 20.4758 22.5 19.3312 22.5 18.1377V7.13769C22.5 4.6502 20.4875 2.6377 18 2.6377H7ZM19.0625 4.51269C19.4769 4.51269 19.8743 4.67732 20.1674 4.97034C20.4604 5.26337 20.625 5.66079 20.625 6.07519C20.625 6.4896 20.4604 6.88702 20.1674 7.18005C19.8743 7.47307 19.4769 7.63769 19.0625 7.63769C18.6481 7.63769 18.2507 7.47307 17.9576 7.18005C17.6646 6.88702 17.5 6.4896 17.5 6.07519C17.5 5.66079 17.6646 5.26337 17.9576 4.97034C18.2507 4.67732 18.6481 4.51269 19.0625 4.51269ZM12.5 6.3877C14.1576 6.3877 15.7473 7.04618 16.9194 8.21828C18.0915 9.39038 18.75 10.9801 18.75 12.6377C18.75 14.2953 18.0915 15.885 16.9194 17.0571C15.7473 18.2292 14.1576 18.8877 12.5 18.8877C10.8424 18.8877 9.25268 18.2292 8.08058 17.0571C6.90848 15.885 6.25 14.2953 6.25 12.6377C6.25 10.9801 6.90848 9.39038 8.08058 8.21828C9.25268 7.04618 10.8424 6.3877 12.5 6.3877ZM12.5 8.88769C11.5054 8.88769 10.5516 9.28278 9.84835 9.98604C9.14509 10.6893 8.75 11.6431 8.75 12.6377C8.75 13.6323 9.14509 14.5861 9.84835 15.2893C10.5516 15.9926 11.5054 16.3877 12.5 16.3877C13.4946 16.3877 14.4484 15.9926 15.1516 15.2893C15.8549 14.5861 16.25 13.6323 16.25 12.6377C16.25 11.6431 15.8549 10.6893 15.1516 9.98604C14.4484 9.28278 13.4946 8.88769 12.5 8.88769Z" fill="white"/>
</svg>
