<svg width="61" height="51" viewBox="0 0 61 51" fill="none" xmlns="http://www.w3.org/2000/svg">
<path d="M28.6582 10.037C28.6582 9.51238 29.0839 9.08663 29.6086 9.08663H30.9833C31.5079 9.08663 31.9337 9.51238 31.9337 10.037C31.9337 10.5616 31.5079 10.9874 30.9833 10.9874H29.6086C29.0833 10.9874 28.6582 10.5616 28.6582 10.037ZM29.6086 15.8354H30.9833C31.5079 15.8354 31.9337 15.4096 31.9337 14.885C31.9337 14.3604 31.5079 13.9346 30.9833 13.9346H29.6086C29.0839 13.9346 28.6582 14.3604 28.6582 14.885C28.6582 15.4096 29.0833 15.8354 29.6086 15.8354ZM32.1644 19.733C32.1644 19.2084 31.7386 18.7826 31.214 18.7826H29.8386C29.314 18.7826 28.8882 19.2084 28.8882 19.733C28.8882 20.2576 29.314 20.6833 29.8386 20.6833H31.2133C31.7386 20.6833 32.1644 20.2576 32.1644 19.733ZM9.14918 10.9874H10.5239C11.0486 10.9874 11.4743 10.5616 11.4743 10.037C11.4743 9.51238 11.0486 9.08663 10.5239 9.08663H9.14918C8.62456 9.08663 8.19882 9.51238 8.19882 10.037C8.19882 10.5616 8.62389 10.9874 9.14918 10.9874ZM9.14918 15.8354H10.5239C11.0486 15.8354 11.4743 15.4096 11.4743 14.885C11.4743 14.3604 11.0486 13.9346 10.5239 13.9346H9.14918C8.62456 13.9346 8.19882 14.3604 8.19882 14.885C8.19882 15.4096 8.62389 15.8354 9.14918 15.8354ZM11.705 19.733C11.705 19.2084 11.2793 18.7826 10.7546 18.7826H9.37988C8.85526 18.7826 8.42951 19.2084 8.42951 19.733C8.42951 20.2576 8.85526 20.6833 9.37988 20.6833H10.7546C11.2793 20.6833 11.705 20.2576 11.705 19.733ZM60.5912 19.1505C60.5912 21.6875 56.1495 22.9352 51.7057 23.0899V33.6205C51.7057 37.0864 48.8855 39.9065 45.4197 39.9065H41.9518C41.4662 45.912 36.4245 50.6504 30.2959 50.6504C24.1673 50.6504 19.1256 45.912 18.64 39.9058H15.1715C11.7057 39.9058 8.88553 37.0857 8.88553 33.6199V23.0905C4.44175 22.9352 0 21.6882 0 19.1512V4.60654C0 1.88795 5.09887 0.650391 9.83589 0.650391C14.5729 0.650391 19.6718 1.88862 19.6718 4.60654V19.1505C19.6718 21.6875 15.23 22.9352 10.7863 23.0899V33.6205C10.7863 36.0385 12.7536 38.0058 15.1715 38.0058H18.64C19.1001 32.3137 23.6535 27.7603 29.3456 27.3002V23.0905C24.9018 22.9352 20.4601 21.6882 20.4601 19.1512V4.60654C20.4601 1.88795 25.5589 0.650391 30.2959 0.650391C35.033 0.650391 40.1318 1.88862 40.1318 4.60654V19.1505C40.1318 21.6875 35.6901 22.9352 31.2463 23.0899V27.2996C36.9384 27.7596 41.4918 32.313 41.9518 38.0051H45.4197C47.8376 38.0051 49.805 36.0378 49.805 33.6199V23.0905C45.3612 22.9352 40.9194 21.6882 40.9194 19.1512V4.60654C40.9194 1.88795 46.0183 0.650391 50.7553 0.650391C55.4923 0.650391 60.5912 1.88862 60.5912 4.60654V19.1505ZM1.9014 4.60654C1.9014 4.72559 2.23366 5.28181 3.85795 5.83199C5.44054 6.36737 7.5639 6.66196 9.83656 6.66196C12.1092 6.66196 14.2326 6.36737 15.8152 5.83199C17.4395 5.28249 17.7717 4.72559 17.7717 4.60654C17.7717 4.48749 17.4395 3.93126 15.8152 3.38109C14.2326 2.84571 12.1092 2.55044 9.83656 2.55044C7.5639 2.55044 5.44054 2.84504 3.85795 3.38109C2.23366 3.93126 1.9014 4.48749 1.9014 4.60654ZM1.9014 9.45453C1.9014 9.57358 2.23366 10.1298 3.85795 10.68C5.44054 11.2154 7.5639 11.5106 9.83656 11.5106C12.1092 11.5106 14.2326 11.216 15.8152 10.68C17.4401 10.1305 17.7717 9.57358 17.7717 9.45453V7.07291C15.8589 8.08582 12.7785 8.56336 9.83656 8.56336C6.89467 8.56336 3.81423 8.08582 1.9014 7.07291V9.45453ZM1.9014 14.3025C1.9014 14.4216 2.23366 14.9778 3.85795 15.528C5.44054 16.0634 7.5639 16.3579 9.83656 16.3579C12.1092 16.3579 14.2326 16.0634 15.8152 15.528C17.4395 14.9785 17.7717 14.4216 17.7717 14.3025V11.9209C15.8589 12.9338 12.7785 13.4114 9.83656 13.4114C6.89467 13.4114 3.81423 12.9338 1.9014 11.9209V14.3025ZM3.85795 20.376C5.44054 20.9114 7.5639 21.2059 9.83656 21.2059C12.1092 21.2059 14.2326 20.9114 15.8152 20.376C17.4395 19.8265 17.7717 19.2696 17.7717 19.1505V16.7689C15.8589 17.7818 12.7785 18.2594 9.83656 18.2594C6.89467 18.2594 3.81423 17.7818 1.9014 16.7689V19.1505C1.9014 19.2696 2.23366 19.8265 3.85795 20.376ZM40.043 38.0051C39.9166 36.6963 39.5312 35.4627 38.9387 34.355H36.358C36.623 35.4863 36.7918 36.7131 36.8476 38.0051H40.043ZM31.2463 29.392V32.4543H33.7416C33.6427 32.229 33.5391 32.0097 33.4288 31.7992C32.802 30.5999 32.0379 29.7693 31.2463 29.392ZM27.1624 31.7992C27.0521 32.0097 26.9485 32.229 26.8496 32.4543H29.3449V29.392C28.5539 29.7693 27.7899 30.5999 27.1624 31.7992ZM26.1938 34.355C25.8952 35.4829 25.7082 36.7164 25.647 38.0051H29.3449V34.355H26.1938ZM25.6477 39.9058C25.7089 41.1945 25.8952 42.428 26.1945 43.556H29.3463V39.9058H25.6477ZM26.8503 45.4574C26.9492 45.6827 27.0527 45.9019 27.163 46.1125C27.7906 47.3117 28.5539 48.1423 29.3463 48.5196V45.4574H26.8503ZM33.4295 46.1125C33.5398 45.9019 33.6434 45.6827 33.7423 45.4574H31.247V48.5196C32.0379 48.1423 32.802 47.3117 33.4295 46.1125ZM34.398 43.5566C34.6967 42.4287 34.8836 41.1952 34.9449 39.9065H31.247V43.5566H34.398ZM34.9442 38.0051C34.883 36.7164 34.6967 35.4829 34.3974 34.355H31.2456V38.0051H34.9442ZM34.7061 30.2152C35.119 30.8737 35.4836 31.6256 35.7903 32.4543H37.6117C36.7958 31.5369 35.8111 30.7748 34.7061 30.2152ZM22.3608 4.60654C22.3608 4.72559 22.693 5.28181 24.3173 5.83132C25.8999 6.36669 28.0233 6.66196 30.2959 6.66196C32.5686 6.66196 34.692 6.36737 36.2746 5.83199C37.8988 5.28249 38.2311 4.72559 38.2311 4.60654C38.2311 4.48749 37.8988 3.93126 36.2746 3.38109C34.692 2.84571 32.5686 2.55044 30.2959 2.55044C28.0233 2.55044 25.8999 2.84504 24.3173 3.38109C22.693 3.93126 22.3608 4.48749 22.3608 4.60654ZM22.3608 9.45453C22.3608 9.57358 22.693 10.1298 24.3173 10.68C25.8999 11.2154 28.0233 11.5106 30.2959 11.5106C32.5686 11.5106 34.692 11.216 36.2746 10.68C37.8995 10.1305 38.2311 9.57358 38.2311 9.45453V7.07291C36.3183 8.08582 33.2378 8.56336 30.2959 8.56336C27.3541 8.56336 24.2736 8.08582 22.3608 7.07291V9.45453ZM22.3608 14.3025C22.3608 14.4216 22.693 14.9778 24.3173 15.528C25.8999 16.0634 28.0233 16.3586 30.2959 16.3586C32.5686 16.3586 34.692 16.064 36.2746 15.5287C37.8988 14.9792 38.2311 14.4223 38.2311 14.3032V11.9216C36.3183 12.9345 33.2378 13.412 30.2959 13.412C27.3541 13.412 24.2736 12.9345 22.3608 11.9216V14.3025ZM24.3173 20.376C25.8999 20.9114 28.0233 21.2059 30.2959 21.2059C32.5686 21.2059 34.692 20.9114 36.2746 20.376C37.8988 19.8265 38.2311 19.2696 38.2311 19.1505V16.7689C36.3183 17.7818 33.2378 18.2594 30.2959 18.2594C27.3541 18.2594 24.2736 17.7818 22.3608 16.7689V19.1505C22.3608 19.2696 22.693 19.8265 24.3173 20.376ZM22.9802 32.4543H24.8016C25.1083 31.6256 25.4728 30.8737 25.8858 30.2152C24.7807 30.7748 23.7961 31.5369 22.9802 32.4543ZM20.5488 38.0051H23.7436C23.7994 36.7131 23.9683 35.4863 24.2333 34.355H21.6532C21.0613 35.4627 20.676 36.6963 20.5488 38.0051ZM20.5488 39.9058C20.6753 41.2147 21.0607 42.4482 21.6532 43.556H24.2339C23.9689 42.4247 23.8001 41.1979 23.7443 39.9058H20.5488ZM25.8858 47.6964C25.4728 47.0379 25.1083 46.286 24.8016 45.4574H22.9802C23.7961 46.3741 24.7807 47.1361 25.8858 47.6964ZM37.6117 45.4574H35.7903C35.4836 46.286 35.119 47.0379 34.7061 47.6964C35.8111 47.1361 36.7958 46.3741 37.6117 45.4574ZM40.043 39.9058H36.8483C36.7924 41.1979 36.6236 42.4247 36.3586 43.556H38.9393C39.5305 42.4489 39.9159 41.2147 40.043 39.9058ZM42.8202 4.60654C42.8202 4.72559 43.1524 5.28181 44.7767 5.83199C46.3593 6.36737 48.4827 6.66196 50.7553 6.66196C53.028 6.66196 55.1513 6.36737 56.7339 5.83132C58.3555 5.28249 58.6891 4.7276 58.6905 4.60721C58.6905 4.48816 58.3582 3.93126 56.7339 3.38109C55.1513 2.84571 53.028 2.55044 50.7553 2.55044C48.4827 2.55044 46.3593 2.84504 44.7767 3.38109C43.1524 3.93126 42.8202 4.48749 42.8202 4.60654ZM58.6905 19.1505V16.7689C56.7776 17.7818 53.6972 18.2594 50.7553 18.2594C47.8134 18.2594 44.733 17.7818 42.8202 16.7689V19.1505C42.8202 19.2696 43.1524 19.8258 44.7767 20.376C46.3593 20.9114 48.4827 21.2059 50.7553 21.2059C53.028 21.2059 55.1513 20.9114 56.7339 20.376C58.3582 19.8265 58.6905 19.2696 58.6905 19.1505ZM58.6905 14.3025V11.9209C56.7776 12.9338 53.6972 13.4114 50.7553 13.4114C47.8134 13.4114 44.733 12.9338 42.8202 11.9209V14.3025C42.8202 14.4216 43.1524 14.9778 44.7767 15.528C46.3593 16.0634 48.4827 16.3579 50.7553 16.3579C53.028 16.3579 55.1513 16.0634 56.7339 15.528C58.3582 14.9785 58.6905 14.4216 58.6905 14.3025ZM58.6905 9.45453V7.07291C56.7776 8.08582 53.6972 8.56336 50.7553 8.56336C47.8134 8.56336 44.733 8.08582 42.8202 7.07291V9.45453C42.8202 9.57358 43.1524 10.1298 44.7767 10.68C46.3593 11.2154 48.4827 11.5106 50.7553 11.5106C53.028 11.5106 55.1513 11.216 56.7339 10.68C58.3582 10.1305 58.6905 9.57358 58.6905 9.45453ZM51.4427 9.08596H50.0679C49.5433 9.08596 49.1176 9.5117 49.1176 10.0363C49.1176 10.5609 49.5433 10.9867 50.0679 10.9867H51.4427C51.9673 10.9867 52.3931 10.5609 52.3931 10.0363C52.3931 9.5117 51.968 9.08596 51.4427 9.08596ZM51.4427 13.934H50.0679C49.5433 13.934 49.1176 14.3597 49.1176 14.8843C49.1176 15.4089 49.5433 15.8347 50.0679 15.8347H51.4427C51.9673 15.8347 52.3931 15.4089 52.3931 14.8843C52.3931 14.3597 51.968 13.934 51.4427 13.934ZM51.6734 18.7819H50.2986C49.774 18.7819 49.3483 19.2077 49.3483 19.7323C49.3483 20.2569 49.774 20.6827 50.2986 20.6827H51.6734C52.198 20.6827 52.6238 20.2569 52.6238 19.7323C52.6238 19.2077 52.198 18.7819 51.6734 18.7819Z" fill="black"/>
</svg>
