<svg width="151" height="150" viewBox="0 0 151 150" fill="none" xmlns="http://www.w3.org/2000/svg">
<g clip-path="url(#clip0_916_651)">
<mask id="mask0_916_651" style="mask-type:luminance" maskUnits="userSpaceOnUse" x="0" y="0" width="151" height="150">
<path d="M150.5 0H0.5V150H150.5V0Z" fill="white"/>
</mask>
<g mask="url(#mask0_916_651)">
<path d="M109.872 127.16C113.257 132.29 116.747 137.568 120.238 142.853C120.817 143.735 121.595 144.575 121.891 145.506C122.294 146.748 122.471 148.808 121.312 149.521C120.153 150.234 118.196 149.105 117.567 148.237C113.54 142.599 109.774 136.771 105.916 131.006C105.661 130.618 105.343 130.272 104.877 129.686C81.8 141.957 58.61 142.042 34.996 129.665C32.0921 133.983 29.1739 138.323 26.2628 142.655C25.1463 144.314 24.023 145.965 22.9558 147.651C21.8606 149.38 20.5394 150.897 18.4338 149.387C16.5967 148.068 17.2821 146.381 18.3914 144.751C22.0375 139.417 25.6056 134.033 29.2022 128.663C29.5837 128.092 29.9228 127.492 29.937 127.464C24.4823 121.699 18.7023 116.618 14.1378 110.606C-10.0343 78.776 -1.08901 31.7326 33.1801 10.8322C56.4126 -3.33657 80.3091 -3.32246 104.312 9.2093C105.032 9.58329 105.965 10.0066 106.262 10.6558C106.721 11.6578 107.244 13.2666 106.771 13.9017C106.227 14.6355 104.432 15.1224 103.534 14.7837C100.913 13.8029 98.5106 12.2646 95.9456 11.1074C58.4545 -5.83445 14.7101 16.9287 6.81056 58.038C0.260561 92.1123 23.4506 125.897 57.8963 132.424C94.3772 139.339 128.957 114.177 133.635 77.3013C133.932 74.9799 133.819 72.5455 134.483 70.3439C134.85 69.1162 136.037 66.9993 137.479 67.2321C138.835 67.458 139.266 69.6947 139.252 70.9156C139.089 87.2859 133.571 101.758 122.972 114.17C119.108 118.693 114.515 122.595 109.872 127.16Z" fill="url(#paint0_linear_916_651)"/>
<path d="M28.3091 70.0257C28.8178 95.7101 51.3438 115.044 76.3496 110.754C94.2755 107.677 105.694 96.8603 110.569 79.361C111.403 76.3762 111.276 73.1305 111.975 70.0963C112.251 68.9109 113.092 66.9281 114.448 66.9281C115.805 66.9281 116.914 69.0592 116.865 70.061C116.441 78.8037 114.908 87.3063 109.827 94.7506C98.9318 110.705 83.7474 118.318 64.578 116.223C36.2935 113.139 19.8938 87.278 23.3489 63.4705C27.2705 36.4314 51.16 18.7274 78.1513 23.2646C82.9348 24.0689 87.4995 26.2633 92.1064 27.978C93.9292 28.6555 95.6886 29.9396 94.5651 32.2401C93.3924 34.6532 91.4491 33.6583 89.7322 32.7621C79.2041 27.2795 68.3088 26.3058 56.954 29.8551C39.8829 35.2035 27.9488 51.8702 28.3091 70.0116V70.0257Z" fill="url(#paint1_linear_916_651)"/>
<path d="M112.812 49.9861C114.917 50.4589 117.136 50.6776 119.086 51.5174C120.167 51.983 121.926 53.2109 121.644 54.5091C121.361 55.8076 119.121 56.3649 117.991 56.2168C115.009 55.8357 111.9 55.2784 109.208 54.0082C104.983 52.0183 102.058 54.248 98.8355 56.1744C89.975 61.4666 81.1216 66.7728 72.1267 71.8462C71.1447 72.3965 68.5727 72.4601 67.866 71.1828C67.216 69.9974 68.5444 68.0641 69.4772 67.5207C79.1219 61.9253 88.6537 56.0474 98.7153 51.2985C104.679 48.4903 104.396 43.3886 105.541 38.7809C106.064 36.6853 105.929 34.9494 106.742 33.3477C107.322 32.2117 109.109 30.8358 110.169 30.9769C112.183 31.238 112.197 32.9666 111.54 34.8437C110.551 37.6732 109.908 40.6225 108.897 44.3413C114.112 42.3091 117.404 40.3827 118.005 34.8365C118.323 31.9153 118.91 29.2551 119.574 26.2422C119.842 25.0356 121.368 23.074 122.796 23.3844C124.223 23.6949 124.746 26.1433 124.569 27.357C124.131 30.4052 123.022 33.3547 122.146 36.4595C126.661 36.3395 129.861 33.637 130.469 29.9679C131.077 26.2703 131.939 22.6082 132.511 18.9037C132.829 16.8716 133.917 15.5732 135.733 16.3988C136.729 16.8504 137.655 18.8896 137.528 20.1033C137.118 24.0547 136.214 27.9496 135.415 32.3529C138.778 32.9455 142.008 33.3477 145.145 34.1167C147.321 34.646 150.904 34.1662 150.437 37.7791C149.964 41.4412 146.848 39.7688 144.749 39.4865C142.318 39.1548 139.888 38.6187 137.535 37.8989C133.338 36.6076 129.953 37.7085 126.816 41.3634C129.162 41.9774 131.31 42.5772 133.486 43.0853C135.373 43.5298 136.758 44.6235 135.846 46.4863C135.465 47.2694 133.387 47.6647 132.172 47.5094C128.802 47.0719 125.417 46.4793 122.16 45.5195" fill="url(#paint2_linear_916_651)"/>
<path d="M70.0289 88.8655C80.2318 88.9008 88.3365 81.6682 89.3609 71.6201C89.4103 71.1545 89.4317 70.7806 89.5234 70.2372C89.7496 68.8048 90.9365 66.8432 92.3922 66.942C93.8478 67.0407 94.7451 69.4115 94.7098 70.6041C94.4766 78.4576 91.0496 84.8928 84.7257 89.5075C72.7705 98.2361 56.8158 95.0468 48.7821 82.5008C41.2853 70.7947 45.3763 54.7912 57.8829 47.862C65.2101 43.8049 72.9046 43.6496 80.5994 47.0719C82.3658 47.8551 84.33 48.8499 83.235 51.2208C82.1609 53.5494 80.2179 52.7098 78.3807 51.9617C65.6905 46.7544 53.0639 53.3871 50.7534 66.4409C48.6619 78.2812 57.7202 88.8161 70.0219 88.8585L70.0289 88.8655Z" fill="url(#paint3_linear_916_651)"/>
</g>
</g>
<defs>
<linearGradient id="paint0_linear_916_651" x1="-6.00402" y1="73.4019" x2="147.924" y2="73.4019" gradientUnits="userSpaceOnUse">
<stop stop-color="#CF2CA4"/>
<stop offset="1" stop-color="#0CACD5"/>
</linearGradient>
<linearGradient id="paint1_linear_916_651" x1="18.4876" y1="68.5568" x2="122.74" y2="68.5568" gradientUnits="userSpaceOnUse">
<stop stop-color="#CF2CA4"/>
<stop offset="1" stop-color="#0CACD5"/>
</linearGradient>
<linearGradient id="paint2_linear_916_651" x1="63.8128" y1="43.5845" x2="155.653" y2="43.5845" gradientUnits="userSpaceOnUse">
<stop stop-color="#CF2CA4"/>
<stop offset="1" stop-color="#0CACD5"/>
</linearGradient>
<linearGradient id="paint3_linear_916_651" x1="42.7005" y1="69.0122" x2="97.8159" y2="69.0122" gradientUnits="userSpaceOnUse">
<stop stop-color="#CF2CA4"/>
<stop offset="1" stop-color="#0CACD5"/>
</linearGradient>
<clipPath id="clip0_916_651">
<rect width="150" height="150" fill="white" transform="translate(0.5)"/>
</clipPath>
</defs>
</svg>
