<svg width="45" height="46" viewBox="0 0 45 46" fill="none" xmlns="http://www.w3.org/2000/svg">
<circle cx="22.5" cy="23.2041" r="22" stroke="black"/>
<path d="M27.2918 30.0007L13.7499 16.4588C13.3286 16.0375 13.3384 15.3657 13.7722 14.9319C14.206 14.4981 14.8778 14.4883 15.2991 14.9096L28.841 28.4515C29.2623 28.8728 29.2525 29.5447 28.8187 29.9784C28.385 30.4122 27.7131 30.422 27.2918 30.0007Z" fill="black"/>
<path d="M18.108 31.6613C18.008 31.5639 17.9303 31.446 17.8796 31.3153C17.8289 31.1846 17.8065 31.0439 17.8137 30.9023C17.8226 30.2915 18.3029 29.8113 18.9136 29.8024L28.5333 29.662L28.6736 20.0424C28.6825 19.4316 29.1628 18.9513 29.7736 18.9424C30.3843 18.9335 30.8508 19.4 30.8419 20.0107L30.6859 30.6992C30.677 31.31 30.1968 31.7903 29.586 31.7992L18.8975 31.9551C18.5921 31.9596 18.319 31.8414 18.1385 31.6609L18.108 31.6613Z" fill="black"/>
</svg>
