<svg width="91" height="51" viewBox="0 0 91 51" fill="none" xmlns="http://www.w3.org/2000/svg">
<path fill-rule="evenodd" clip-rule="evenodd" d="M5.55686 32.8843H13.0237C13.8887 32.8843 14.5911 32.1801 14.5911 31.3133C14.5911 30.4499 13.8887 29.7458 13.0237 29.7458H5.55686C4.69182 29.7458 3.98941 30.4499 3.98941 31.3133C3.98941 32.1801 4.69182 32.8843 5.55686 32.8843Z" fill="black"/>
<path fill-rule="evenodd" clip-rule="evenodd" d="M1.68457 41.8756H13.0232C13.8875 41.8756 14.5906 41.1715 14.5906 40.3046C14.5906 39.4412 13.8875 38.7371 13.0232 38.7371H1.68457C0.82028 38.7371 0.117188 39.4412 0.117188 40.3046C0.117188 41.1715 0.82028 41.8756 1.68457 41.8756Z" fill="black"/>
<path fill-rule="evenodd" clip-rule="evenodd" d="M51.4664 31.3117C51.4664 30.4478 50.7635 29.7444 49.9 29.7444H21.4746C20.6077 29.7444 19.9082 30.4478 19.9082 31.3117V49.2977C19.9082 50.1639 20.6077 50.865 21.4746 50.865H49.9C50.7635 50.865 51.4664 50.1639 51.4664 49.2977V31.3117ZM48.3336 32.879V47.7304H23.0409V32.879H48.3336Z" fill="black"/>
<path fill-rule="evenodd" clip-rule="evenodd" d="M34.8504 41.6304C35.36 41.9527 36.0117 41.9527 36.5244 41.6304L50.7372 32.6367C51.3271 32.2639 51.5989 31.5462 51.4043 30.8762C51.2097 30.2062 50.598 29.7444 49.9 29.7444H21.4746C20.7766 29.7444 20.162 30.2062 19.9705 30.8762C19.7759 31.5462 20.0477 32.2639 20.6376 32.6367L34.8504 41.6304ZM35.6874 38.4503L26.8823 32.8795H44.4924L35.6874 38.4503Z" fill="black"/>
<path fill-rule="evenodd" clip-rule="evenodd" d="M5.55686 50.87H13.0237C13.8887 50.87 14.5911 50.1659 14.5911 49.299C14.5911 48.4356 13.8887 47.7315 13.0237 47.7315H5.55686C4.69182 47.7315 3.98941 48.4356 3.98941 49.299C3.98941 50.1659 4.69182 50.87 5.55686 50.87Z" fill="black"/>
<path fill-rule="evenodd" clip-rule="evenodd" d="M44.176 30.9472C43.7871 29.3179 43.5815 27.6158 43.5815 25.8695C43.5815 13.8031 53.3708 4.00521 65.4303 4.00521C77.4898 4.00521 87.2822 13.8031 87.2822 25.8695C87.2822 37.9326 77.4898 47.7306 65.4303 47.7306C59.8717 47.7306 54.7968 45.6489 50.9393 42.2226C50.2911 41.6468 49.3014 41.7069 48.726 42.3555C48.1537 43.0009 48.2106 43.9943 48.8588 44.5669C53.2696 48.4836 59.0749 50.8658 65.4303 50.8658C79.2194 50.8658 90.4157 39.6632 90.4157 25.8695C90.4157 12.0726 79.2194 0.869995 65.4303 0.869995C51.6444 0.869995 40.4481 12.0726 40.4481 25.8695C40.4481 27.8658 40.6852 29.8115 41.1279 31.6749C41.3271 32.5164 42.1745 33.0384 43.0156 32.8359C43.8566 32.6366 44.3752 31.7887 44.176 30.9472Z" fill="black"/>
<path fill-rule="evenodd" clip-rule="evenodd" d="M49.0913 44.7724C53.4747 48.5689 59.1867 50.8669 65.4313 50.8669C71.9861 50.8669 77.955 48.337 82.4167 44.1956C82.7363 43.9009 82.9181 43.4839 82.9181 43.0482C82.9181 42.6124 82.7363 42.1954 82.4167 41.8976C77.955 37.7593 71.9861 35.2262 65.4313 35.2262C59.1867 35.2262 53.4747 37.5242 49.0913 41.3207C48.9566 41.4367 48.7968 41.6123 48.6746 41.8851C48.6088 42.0324 48.496 42.5372 48.496 43.0482C48.496 43.5592 48.6088 44.0608 48.6746 44.2081C48.7968 44.4809 48.9566 44.6564 49.0913 44.7724ZM51.9207 43.0482C55.643 40.1138 60.3335 38.3613 65.4313 38.3613C70.5323 38.3613 75.2227 40.1138 78.9419 43.0482C75.2227 45.9794 70.5323 47.7319 65.4313 47.7319C60.3335 47.7319 55.643 45.9826 51.9207 43.0482ZM47.3743 8.6035C46.7946 9.20856 46.7946 10.1647 47.3743 10.7698C51.9238 15.5319 58.3344 18.5008 65.4313 18.5008C72.5313 18.5008 78.9419 15.5319 83.4914 10.7698C84.0711 10.1647 84.0711 9.20856 83.4914 8.6035C78.9419 3.84137 72.5313 0.872483 65.4313 0.872483C58.3344 0.872483 51.9238 3.84137 47.3743 8.6035ZM50.7488 9.68504C54.6278 6.15812 59.782 4.00752 65.4313 4.00752C71.0837 4.00752 76.2348 6.15812 80.1169 9.68504C76.2348 13.212 71.0837 15.3658 65.4313 15.3658C59.782 15.3658 54.6278 13.212 50.7488 9.68504Z" fill="black"/>
<path fill-rule="evenodd" clip-rule="evenodd" d="M65.432 0.869995C62.4856 0.869995 59.6777 2.73338 57.468 6.10272C54.5414 10.5635 52.5949 17.7514 52.5949 25.8695C52.5949 33.9843 54.5414 41.1723 57.468 45.6362C59.6777 49.0024 62.4856 50.8658 65.432 50.8658C68.3784 50.8658 71.1878 49.0024 73.3961 45.6362C76.3242 41.1723 78.2692 33.9843 78.2692 25.8695C78.2692 17.7514 76.3242 10.5635 73.3961 6.10272C71.1878 2.73338 68.3784 0.869995 65.432 0.869995ZM65.432 4.00521C67.4637 4.00521 69.255 5.50161 70.7769 7.8206C73.4463 11.8891 75.1371 18.4664 75.1371 25.8695C75.1371 33.2694 73.4463 39.8467 70.7769 43.9152C69.255 46.2341 67.4637 47.7306 65.432 47.7306C63.4018 47.7306 61.6105 46.2341 60.0871 43.9152C57.4177 39.8467 55.7284 33.2694 55.7284 25.8695C55.7284 18.4664 57.4177 11.8891 60.0871 7.8206C61.6105 5.50161 63.4018 4.00521 65.432 4.00521Z" fill="black"/>
<path fill-rule="evenodd" clip-rule="evenodd" d="M63.865 2.44V49.2994C63.865 50.1647 64.5665 50.8669 65.4313 50.8669C66.2961 50.8669 66.9983 50.1647 66.9983 49.2994V2.44C66.9983 1.57473 66.2961 0.872483 65.4313 0.872483C64.5665 0.872483 63.865 1.57473 63.865 2.44Z" fill="black"/>
<path fill-rule="evenodd" clip-rule="evenodd" d="M88.8501 24.3015H42.0171C41.1523 24.3015 40.4505 25.0037 40.4505 25.869C40.4505 26.7342 41.1523 27.4365 42.0171 27.4365H88.8501C89.7149 27.4365 90.4157 26.7347 90.4157 25.8695C90.4157 25.0042 89.7149 24.3015 88.8501 24.3015Z" fill="black"/>
</svg>
