<svg width="194" height="149" viewBox="0 0 194 149" fill="none" xmlns="http://www.w3.org/2000/svg">
<path d="M17.6492 135.644C6.49084 123.792 0.5 110.5 0.5 88.9524C0.5 51.0357 27.1175 17.0515 65.825 0.249023L75.4992 15.1774C39.37 34.7207 32.3067 60.0815 29.49 76.0715C35.3075 73.0599 42.9233 72.009 50.3875 72.7024C69.9308 74.5115 85.3358 90.5557 85.3358 110.5C85.3358 120.556 81.3411 130.2 74.2303 137.311C67.1195 144.422 57.4753 148.417 47.4192 148.417C41.8579 148.369 36.3617 147.215 31.2507 145.022C26.1398 142.829 21.5161 139.641 17.6492 135.644ZM125.982 135.644C114.824 123.792 108.833 110.5 108.833 88.9524C108.833 51.0357 135.451 17.0515 174.158 0.249023L183.833 15.1774C147.703 34.7207 140.64 60.0815 137.823 76.0715C143.641 73.0599 151.257 72.009 158.721 72.7024C178.264 74.5115 193.669 90.5557 193.669 110.5C193.669 120.556 189.674 130.2 182.564 137.311C175.453 144.422 165.809 148.417 155.752 148.417C150.191 148.369 144.695 147.215 139.584 145.022C134.473 142.829 129.849 139.641 125.982 135.644Z" fill="url(#paint0_linear_966_640)"/>
<defs>
<linearGradient id="paint0_linear_966_640" x1="-8.5548" y1="72.7519" x2="205.742" y2="72.7519" gradientUnits="userSpaceOnUse">
<stop stop-color="#CF2CA4"/>
<stop offset="1" stop-color="#0CACD5"/>
</linearGradient>
</defs>
</svg>
