<svg width="32" height="32" viewBox="0 0 32 32" fill="none" xmlns="http://www.w3.org/2000/svg">
<circle cx="15.569" cy="16.3223" r="15.4459" fill="black"/>
<path d="M20.2819 19.503L20.3599 14.1599C20.3616 14.0392 20.4503 13.9505 20.571 13.9487C20.6341 13.9478 20.6745 13.97 20.6988 13.9943C20.723 14.0185 20.7452 14.0589 20.7443 14.122L20.6563 20.1526C20.6055 19.9277 20.4921 19.7131 20.3131 19.5342L20.2819 19.503ZM13.1158 21.4039L18.417 21.3266L18.4688 21.3784C18.6186 21.5282 18.7933 21.6321 18.9782 21.6918L13.0886 21.7777C13.0239 21.7786 12.9815 21.7528 12.966 21.7373L12.9091 21.6804C12.9051 21.6666 12.9032 21.6514 12.904 21.6352L12.9045 21.6251L12.9047 21.615C12.9064 21.4943 12.9951 21.4057 13.1158 21.4039ZM10.2361 11.0186L19.171 19.9536L19.1673 20.2113L18.8676 20.2157L9.95331 11.3014C9.89036 11.2384 9.87561 11.1269 9.96861 11.0339C10.0616 10.9409 10.1731 10.9557 10.2361 11.0186ZM20.4261 21.6706L19.7951 21.6799C19.9789 21.6157 20.1514 21.5095 20.2978 21.3631C20.4731 21.1879 20.5906 20.9752 20.6476 20.7506L20.6372 21.4595C20.6355 21.5802 20.5468 21.6689 20.4261 21.6706Z" fill="white" stroke="white" stroke-width="1.10417"/>
</svg>
