<svg width="499" height="150" viewBox="0 0 499 150" fill="none" xmlns="http://www.w3.org/2000/svg">
<mask id="path-1-outside-1_874_638" maskUnits="userSpaceOnUse" x="0" y="12.8071" width="493" height="135" fill="black">
<rect fill="white" y="12.8071" width="493" height="135"/>
<path d="M68.8496 27.5647V44.2004H46.264V112.807H25.4998V44.2004H2.91427V27.5647H68.8496ZM143.142 77.8359C143.142 79.7787 143.02 81.8025 142.777 83.9072H95.7847C96.1085 88.1167 97.4442 91.3548 99.7918 93.6215C102.22 95.8072 105.175 96.9 108.656 96.9C113.837 96.9 117.439 94.7143 119.463 90.3429H141.563C140.43 94.7953 138.365 98.8024 135.37 102.364C132.456 105.926 128.773 108.719 124.32 110.743C119.868 112.767 114.889 113.778 109.385 113.778C102.747 113.778 96.8371 112.362 91.6562 109.529C86.4753 106.695 82.4277 102.648 79.5134 97.3857C76.5991 92.1239 75.142 85.9715 75.142 78.9287C75.142 71.8859 76.5587 65.7335 79.392 60.4717C82.3062 55.2098 86.3538 51.1622 91.5348 48.3289C96.7157 45.4956 102.666 44.0789 109.385 44.0789C115.942 44.0789 121.77 45.4551 126.87 48.2075C131.97 50.9598 135.937 54.886 138.77 59.986C141.684 65.0859 143.142 71.0359 143.142 77.8359ZM121.892 72.3716C121.892 68.8097 120.677 65.9764 118.249 63.8717C115.82 61.7669 112.785 60.7145 109.142 60.7145C105.661 60.7145 102.706 61.7264 100.278 63.7502C97.93 65.774 96.4728 68.6478 95.9062 72.3716H121.892ZM195.503 112.807L174.86 84.393V112.807H154.096V22.9505H174.86V72.6145L195.381 45.0503H221.002L192.831 79.0501L221.245 112.807H195.503ZM270.443 44.3218C278.377 44.3218 284.691 46.9122 289.386 52.0932C294.162 57.1931 296.55 64.2359 296.55 73.2216V112.807H275.908V76.0144C275.908 71.4811 274.734 67.9597 272.386 65.4502C270.039 62.9407 266.882 61.686 262.915 61.686C258.948 61.686 255.791 62.9407 253.444 65.4502C251.096 67.9597 249.922 71.4811 249.922 76.0144V112.807H229.158V45.0503H249.922V54.036C252.027 51.0408 254.86 48.6932 258.422 46.9932C261.984 45.2122 265.991 44.3218 270.443 44.3218ZM321.422 38.0075C317.779 38.0075 314.784 36.9552 312.437 34.8504C310.17 32.6647 309.037 29.9933 309.037 26.8362C309.037 23.5981 310.17 20.9267 312.437 18.8219C314.784 16.6362 317.779 15.5434 321.422 15.5434C324.984 15.5434 327.898 16.6362 330.165 18.8219C332.513 20.9267 333.686 23.5981 333.686 26.8362C333.686 29.9933 332.513 32.6647 330.165 34.8504C327.898 36.9552 324.984 38.0075 321.422 38.0075ZM331.744 45.0503V112.807H310.979V45.0503H331.744ZM416.005 45.0503L373.505 144.985H351.163L366.705 110.5L339.141 45.0503H362.334L377.998 87.4287L393.541 45.0503H416.005ZM419.385 78.8073C419.385 71.8454 420.68 65.7335 423.271 60.4717C425.942 55.2098 429.545 51.1622 434.078 48.3289C438.611 45.4956 443.671 44.0789 449.256 44.0789C454.033 44.0789 458.202 45.0503 461.763 46.9932C465.406 48.936 468.199 51.486 470.142 54.6431V45.0503H490.906V112.807H470.142V103.214C468.118 106.371 465.285 108.921 461.642 110.864C458.08 112.807 453.911 113.778 449.135 113.778C443.63 113.778 438.611 112.362 434.078 109.529C429.545 106.614 425.942 102.526 423.271 97.2643C420.68 91.9215 419.385 85.7691 419.385 78.8073ZM470.142 78.9287C470.142 73.7478 468.685 69.6597 465.771 66.6645C462.937 63.6693 459.456 62.1717 455.328 62.1717C451.199 62.1717 447.678 63.6693 444.764 66.6645C441.93 69.5788 440.514 73.6264 440.514 78.8073C440.514 83.9882 441.93 88.1167 444.764 91.1929C447.678 94.1881 451.199 95.6857 455.328 95.6857C459.456 95.6857 462.937 94.1881 465.771 91.1929C468.685 88.1977 470.142 84.1096 470.142 78.9287Z"/>
</mask>
<path d="M68.8496 27.5647H70.8496V25.5647H68.8496V27.5647ZM68.8496 44.2004V46.2004H70.8496V44.2004H68.8496ZM46.264 44.2004V42.2004H44.264V44.2004H46.264ZM46.264 112.807V114.807H48.264V112.807H46.264ZM25.4998 112.807H23.4998V114.807H25.4998V112.807ZM25.4998 44.2004H27.4998V42.2004H25.4998V44.2004ZM2.91427 44.2004H0.914268V46.2004H2.91427V44.2004ZM2.91427 27.5647V25.5647H0.914268V27.5647H2.91427ZM66.8496 27.5647V44.2004H70.8496V27.5647H66.8496ZM68.8496 42.2004H46.264V46.2004H68.8496V42.2004ZM44.264 44.2004V112.807H48.264V44.2004H44.264ZM46.264 110.807H25.4998V114.807H46.264V110.807ZM27.4998 112.807V44.2004H23.4998V112.807H27.4998ZM25.4998 42.2004H2.91427V46.2004H25.4998V42.2004ZM4.91427 44.2004V27.5647H0.914268V44.2004H4.91427ZM2.91427 29.5647H68.8496V25.5647H2.91427V29.5647ZM142.777 83.9072V85.9072H144.56L144.764 84.1365L142.777 83.9072ZM95.7847 83.9072V81.9072H93.625L93.7906 84.0606L95.7847 83.9072ZM99.7918 93.6215L98.4027 95.0603L98.4279 95.0846L98.4539 95.1081L99.7918 93.6215ZM119.463 90.3429V88.3429H118.185L117.648 89.5027L119.463 90.3429ZM141.563 90.3429L143.501 90.8363L144.136 88.3429H141.563V90.3429ZM135.37 102.364L133.839 101.077L133.831 101.087L133.822 101.098L135.37 102.364ZM124.32 110.743L125.148 112.564L125.148 112.564L124.32 110.743ZM91.6562 109.529L90.6966 111.283L90.6966 111.283L91.6562 109.529ZM79.5134 97.3857L81.263 96.4167L81.263 96.4167L79.5134 97.3857ZM79.392 60.4717L77.6424 59.5027L77.6366 59.513L77.631 59.5235L79.392 60.4717ZM91.5348 48.3289L92.4944 50.0836L92.4944 50.0836L91.5348 48.3289ZM126.87 48.2075L125.92 49.9675L125.92 49.9675L126.87 48.2075ZM138.77 59.986L137.022 60.9572L137.028 60.9678L137.034 60.9782L138.77 59.986ZM121.892 72.3716V74.3716H123.892V72.3716H121.892ZM118.249 63.8717L119.559 62.3603L119.559 62.3603L118.249 63.8717ZM100.278 63.7502L98.9972 62.2138L98.9843 62.2245L98.9717 62.2354L100.278 63.7502ZM95.9062 72.3716L93.9289 72.0707L93.5788 74.3716H95.9062V72.3716ZM141.142 77.8359C141.142 79.6956 141.025 81.6426 140.79 83.678L144.764 84.1365C145.015 81.9624 145.142 79.8618 145.142 77.8359H141.142ZM142.777 81.9072H95.7847V85.9072H142.777V81.9072ZM93.7906 84.0606C94.1407 88.6111 95.6095 92.3635 98.4027 95.0603L101.181 92.1827C99.2789 90.3462 98.0764 87.6224 97.7788 83.7539L93.7906 84.0606ZM98.4539 95.1081C101.275 97.6471 104.716 98.9 108.656 98.9V94.9C105.634 94.9 103.166 93.9672 101.13 92.1349L98.4539 95.1081ZM108.656 98.9C111.529 98.9 114.102 98.2925 116.281 96.9706C118.469 95.6431 120.124 93.6763 121.278 91.1832L117.648 89.5027C116.779 91.3809 115.621 92.6927 114.206 93.5509C112.782 94.4147 110.964 94.9 108.656 94.9V98.9ZM119.463 92.3429H141.563V88.3429H119.463V92.3429ZM139.625 89.8496C138.567 94.0061 136.643 97.7426 133.839 101.077L136.901 103.651C140.087 99.8621 142.293 95.5844 143.501 90.8363L139.625 89.8496ZM133.822 101.098C131.115 104.407 127.684 107.017 123.493 108.922L125.148 112.564C129.862 110.421 133.797 107.445 136.918 103.631L133.822 101.098ZM123.493 108.922C119.331 110.814 114.64 111.778 109.385 111.778V115.778C115.139 115.778 120.405 114.719 125.148 112.564L123.493 108.922ZM109.385 111.778C103.04 111.778 97.4675 110.427 92.6158 107.774L90.6966 111.283C96.2067 114.297 102.454 115.778 109.385 115.778V111.778ZM92.6158 107.774C87.7738 105.126 83.9973 101.354 81.263 96.4167L77.7638 98.3547C80.858 103.942 85.1767 108.265 90.6966 111.283L92.6158 107.774ZM81.263 96.4167C78.539 91.4985 77.142 85.6907 77.142 78.9287H73.142C73.142 86.2523 74.6592 92.7492 77.7638 98.3547L81.263 96.4167ZM77.142 78.9287C77.142 72.1578 78.5023 66.3424 81.1529 61.4199L77.631 59.5235C74.615 65.1247 73.142 71.614 73.142 78.9287H77.142ZM81.1416 61.4407C83.8759 56.5037 87.6524 52.7316 92.4944 50.0836L90.5751 46.5742C85.0553 49.5928 80.7366 53.9159 77.6424 59.5027L81.1416 61.4407ZM92.4944 50.0836C97.3425 47.4323 102.954 46.0789 109.385 46.0789V42.0789C102.377 42.0789 96.0888 43.5589 90.5751 46.5742L92.4944 50.0836ZM109.385 46.0789C115.654 46.0789 121.149 47.3924 125.92 49.9675L127.82 46.4474C122.392 43.5178 116.229 42.0789 109.385 42.0789V46.0789ZM125.92 49.9675C130.682 52.5373 134.373 56.1886 137.022 60.9572L140.518 59.0147C137.501 53.5833 133.258 49.3824 127.82 46.4474L125.92 49.9675ZM137.034 60.9782C139.75 65.7312 141.142 71.3285 141.142 77.8359H145.142C145.142 70.7433 143.619 64.4406 140.507 58.9937L137.034 60.9782ZM123.892 72.3716C123.892 68.3002 122.476 64.8888 119.559 62.3603L116.939 65.383C118.879 67.064 119.892 69.3192 119.892 72.3716H123.892ZM119.559 62.3603C116.718 59.8982 113.197 58.7145 109.142 58.7145V62.7145C112.372 62.7145 114.923 63.6356 116.939 65.383L119.559 62.3603ZM109.142 58.7145C105.244 58.7145 101.822 59.8596 98.9972 62.2138L101.558 65.2867C103.59 63.5933 106.078 62.7145 109.142 62.7145V58.7145ZM98.9717 62.2354C96.1891 64.6342 94.5513 67.981 93.9289 72.0707L97.8834 72.6725C98.3944 69.3147 99.6708 66.9138 101.583 65.265L98.9717 62.2354ZM95.9062 74.3716H121.892V70.3716H95.9062V74.3716ZM195.503 112.807L193.885 113.983L194.483 114.807H195.503V112.807ZM174.86 84.393L176.478 83.2174L172.86 78.2373V84.393H174.86ZM174.86 112.807V114.807H176.86V112.807H174.86ZM154.096 112.807H152.096V114.807H154.096V112.807ZM154.096 22.9505V20.9505H152.096V22.9505H154.096ZM174.86 22.9505H176.86V20.9505H174.86V22.9505ZM174.86 72.6145H172.86V78.65L176.464 73.8088L174.86 72.6145ZM195.381 45.0503V43.0503H194.377L193.777 43.856L195.381 45.0503ZM221.002 45.0503L222.542 46.3264L225.257 43.0503H221.002V45.0503ZM192.831 79.0501L191.291 77.7741L190.225 79.0602L191.301 80.3381L192.831 79.0501ZM221.245 112.807V114.807H225.543L222.775 111.519L221.245 112.807ZM197.121 111.632L176.478 83.2174L173.242 85.5685L193.885 113.983L197.121 111.632ZM172.86 84.393V112.807H176.86V84.393H172.86ZM174.86 110.807H154.096V114.807H174.86V110.807ZM156.096 112.807V22.9505H152.096V112.807H156.096ZM154.096 24.9505H174.86V20.9505H154.096V24.9505ZM172.86 22.9505V72.6145H176.86V22.9505H172.86ZM176.464 73.8088L196.985 46.2447L193.777 43.856L173.256 71.4201L176.464 73.8088ZM195.381 47.0503H221.002V43.0503H195.381V47.0503ZM219.462 43.7743L191.291 77.7741L194.371 80.3262L222.542 46.3264L219.462 43.7743ZM191.301 80.3381L219.715 114.095L222.775 111.519L194.361 77.7622L191.301 80.3381ZM221.245 110.807H195.503V114.807H221.245V110.807ZM289.386 52.0932L287.904 53.4362L287.915 53.4483L287.926 53.4603L289.386 52.0932ZM296.55 112.807V114.807H298.55V112.807H296.55ZM275.908 112.807H273.908V114.807H275.908V112.807ZM272.386 65.4502L270.926 66.8165L270.926 66.8165L272.386 65.4502ZM253.444 65.4502L254.904 66.8165L254.904 66.8165L253.444 65.4502ZM249.922 112.807V114.807H251.922V112.807H249.922ZM229.158 112.807H227.158V114.807H229.158V112.807ZM229.158 45.0503V43.0503H227.158V45.0503H229.158ZM249.922 45.0503H251.922V43.0503H249.922V45.0503ZM249.922 54.036H247.922V60.3607L251.559 55.1859L249.922 54.036ZM258.422 46.9932L259.284 48.7981L259.3 48.7902L259.317 48.782L258.422 46.9932ZM270.443 46.3218C277.896 46.3218 283.641 48.7321 287.904 53.4362L290.868 50.7501C285.741 45.0924 278.857 42.3218 270.443 42.3218V46.3218ZM287.926 53.4603C292.265 58.0928 294.55 64.5933 294.55 73.2216H298.55C298.55 63.8786 296.06 56.2935 290.846 50.726L287.926 53.4603ZM294.55 73.2216V112.807H298.55V73.2216H294.55ZM296.55 110.807H275.908V114.807H296.55V110.807ZM277.908 112.807V76.0144H273.908V112.807H277.908ZM277.908 76.0144C277.908 71.14 276.64 67.0697 273.847 64.0839L270.926 66.8165C272.828 68.8497 273.908 71.8222 273.908 76.0144H277.908ZM273.847 64.0839C271.062 61.1066 267.342 59.686 262.915 59.686V63.686C266.422 63.686 269.016 64.7748 270.926 66.8165L273.847 64.0839ZM262.915 59.686C258.488 59.686 254.768 61.1066 251.983 64.0839L254.904 66.8165C256.814 64.7748 259.408 63.686 262.915 63.686V59.686ZM251.983 64.0839C249.19 67.0697 247.922 71.14 247.922 76.0144H251.922C251.922 71.8222 253.002 68.8497 254.904 66.8165L251.983 64.0839ZM247.922 76.0144V112.807H251.922V76.0144H247.922ZM249.922 110.807H229.158V114.807H249.922V110.807ZM231.158 112.807V45.0503H227.158V112.807H231.158ZM229.158 47.0503H249.922V43.0503H229.158V47.0503ZM247.922 45.0503V54.036H251.922V45.0503H247.922ZM251.559 55.1859C253.45 52.4938 256.007 50.362 259.284 48.7981L257.561 45.1882C253.713 47.0244 250.604 49.5877 248.286 52.8861L251.559 55.1859ZM259.317 48.782C262.569 47.1556 266.265 46.3218 270.443 46.3218V42.3218C265.718 42.3218 261.399 43.2689 257.528 45.2043L259.317 48.782ZM312.437 34.8504L311.048 36.2901L311.074 36.3153L311.102 36.3395L312.437 34.8504ZM312.437 18.8219L313.798 20.2875L313.799 20.2857L312.437 18.8219ZM330.165 18.8219L328.777 20.2616L328.803 20.2868L328.83 20.3111L330.165 18.8219ZM330.165 34.8504L331.526 36.316L331.528 36.3142L330.165 34.8504ZM331.744 45.0503H333.744V43.0503H331.744V45.0503ZM331.744 112.807V114.807H333.744V112.807H331.744ZM310.979 112.807H308.979V114.807H310.979V112.807ZM310.979 45.0503V43.0503H308.979V45.0503H310.979ZM321.422 36.0075C318.191 36.0075 315.696 35.0864 313.772 33.3613L311.102 36.3395C313.873 38.8239 317.368 40.0075 321.422 40.0075V36.0075ZM313.825 33.4107C311.95 31.6031 311.037 29.4519 311.037 26.8362H307.037C307.037 30.5347 308.39 33.7263 311.048 36.2901L313.825 33.4107ZM311.037 26.8362C311.037 24.1249 311.959 21.9943 313.798 20.2875L311.076 17.3563C308.38 19.859 307.037 23.0713 307.037 26.8362H311.037ZM313.799 20.2857C315.726 18.4919 318.211 17.5434 321.422 17.5434V13.5434C317.348 13.5434 313.842 14.7806 311.074 17.3581L313.799 20.2857ZM321.422 17.5434C324.54 17.5434 326.933 18.4834 328.777 20.2616L331.553 17.3822C328.864 14.789 325.428 13.5434 321.422 13.5434V17.5434ZM328.83 20.3111C330.742 22.0249 331.686 24.1489 331.686 26.8362H335.686C335.686 23.0473 334.284 19.8284 331.5 17.3328L328.83 20.3111ZM331.686 26.8362C331.686 29.4281 330.751 31.5724 328.802 33.3866L331.528 36.3142C334.275 33.757 335.686 30.5585 335.686 26.8362H331.686ZM328.804 33.3848C326.963 35.0941 324.561 36.0075 321.422 36.0075V40.0075C325.407 40.0075 328.833 38.8162 331.526 36.316L328.804 33.3848ZM329.744 45.0503V112.807H333.744V45.0503H329.744ZM331.744 110.807H310.979V114.807H331.744V110.807ZM312.979 112.807V45.0503H308.979V112.807H312.979ZM310.979 47.0503H331.744V43.0503H310.979V47.0503ZM416.005 45.0503L417.846 45.833L419.029 43.0503H416.005V45.0503ZM373.505 144.985V146.985H374.828L375.346 145.768L373.505 144.985ZM351.163 144.985L349.339 144.164L348.067 146.985H351.163V144.985ZM366.705 110.5L368.529 111.322L368.887 110.527L368.549 109.724L366.705 110.5ZM339.141 45.0503V43.0503H336.129L337.298 45.8266L339.141 45.0503ZM362.334 45.0503L364.21 44.3569L363.727 43.0503H362.334V45.0503ZM377.998 87.4287L376.122 88.1221L378.005 93.2171L379.876 88.1173L377.998 87.4287ZM393.541 45.0503V43.0503H392.144L391.663 44.3617L393.541 45.0503ZM414.165 44.2676L371.665 144.203L375.346 145.768L417.846 45.833L414.165 44.2676ZM373.505 142.985H351.163V146.985H373.505V142.985ZM352.986 145.807L368.529 111.322L364.882 109.678L349.339 144.164L352.986 145.807ZM368.549 109.724L340.984 44.2741L337.298 45.8266L364.862 111.276L368.549 109.724ZM339.141 47.0503H362.334V43.0503H339.141V47.0503ZM360.458 45.7437L376.122 88.1221L379.874 86.7353L364.21 44.3569L360.458 45.7437ZM379.876 88.1173L395.419 45.739L391.663 44.3617L376.12 86.74L379.876 88.1173ZM393.541 47.0503H416.005V43.0503H393.541V47.0503ZM423.271 60.4717L421.487 59.5663L421.482 59.5773L421.476 59.5883L423.271 60.4717ZM434.078 48.3289L435.138 50.0249L435.138 50.0249L434.078 48.3289ZM461.763 46.9932L460.806 48.749L460.814 48.7535L460.822 48.7579L461.763 46.9932ZM470.142 54.6431L468.439 55.6913L472.142 61.7092V54.6431H470.142ZM470.142 45.0503V43.0503H468.142V45.0503H470.142ZM490.906 45.0503H492.906V43.0503H490.906V45.0503ZM490.906 112.807V114.807H492.906V112.807H490.906ZM470.142 112.807H468.142V114.807H470.142V112.807ZM470.142 103.214H472.142V96.3883L468.458 102.135L470.142 103.214ZM461.642 110.864L460.701 109.1L460.693 109.104L460.684 109.108L461.642 110.864ZM434.078 109.529L432.996 111.211L433.007 111.218L433.018 111.225L434.078 109.529ZM423.271 97.2643L421.471 98.1369L421.479 98.1533L421.487 98.1697L423.271 97.2643ZM465.771 66.6645L464.318 68.0389L464.327 68.0491L464.337 68.0592L465.771 66.6645ZM444.764 66.6645L443.33 65.2698L443.33 65.2703L444.764 66.6645ZM444.764 91.1929L443.292 92.5479L443.311 92.568L443.33 92.5876L444.764 91.1929ZM465.771 91.1929L464.337 89.7982L464.327 89.8083L464.318 89.8185L465.771 91.1929ZM421.385 78.8073C421.385 72.0949 422.633 66.2953 425.065 61.355L421.476 59.5883C418.728 65.1718 417.385 71.5959 417.385 78.8073H421.385ZM425.054 61.3771C427.578 56.4049 430.945 52.6457 435.138 50.0249L433.018 46.6329C428.145 49.6787 424.306 54.0147 421.487 59.5663L425.054 61.3771ZM435.138 50.0249C439.339 47.3994 444.028 46.0789 449.256 46.0789V42.0789C443.313 42.0789 437.884 43.5918 433.018 46.6329L435.138 50.0249ZM449.256 46.0789C453.757 46.0789 457.586 46.9926 460.806 48.749L462.721 45.2374C458.817 43.1081 454.308 42.0789 449.256 42.0789V46.0789ZM460.822 48.7579C464.188 50.5532 466.702 52.8698 468.439 55.6913L471.845 53.5949C469.696 50.1022 466.624 47.3189 462.705 45.2285L460.822 48.7579ZM472.142 54.6431V45.0503H468.142V54.6431H472.142ZM470.142 47.0503H490.906V43.0503H470.142V47.0503ZM488.906 45.0503V112.807H492.906V45.0503H488.906ZM490.906 110.807H470.142V114.807H490.906V110.807ZM472.142 112.807V103.214H468.142V112.807H472.142ZM468.458 102.135C466.637 104.975 464.073 107.301 460.701 109.1L462.583 112.629C466.497 110.542 469.599 107.767 471.826 104.294L468.458 102.135ZM460.684 109.108C457.464 110.865 453.636 111.778 449.135 111.778V115.778C454.186 115.778 458.696 114.749 462.6 112.62L460.684 109.108ZM449.135 111.778C443.993 111.778 439.344 110.461 435.138 107.833L433.018 111.225C437.879 114.263 443.267 115.778 449.135 115.778V111.778ZM435.159 107.846C430.953 105.142 427.58 101.335 425.054 96.3589L421.487 98.1697C424.304 103.717 428.136 108.087 432.996 111.211L435.159 107.846ZM425.07 96.3918C422.633 91.364 421.385 85.5187 421.385 78.8073H417.385C417.385 86.0195 418.728 92.479 421.471 98.1369L425.07 96.3918ZM472.142 78.9287C472.142 73.3586 470.564 68.7232 467.204 65.2698L464.337 68.0592C466.806 70.5962 468.142 74.137 468.142 78.9287H472.142ZM467.223 65.2901C464.012 61.8949 460.005 60.1717 455.328 60.1717V64.1717C458.907 64.1717 461.863 65.4436 464.318 68.0389L467.223 65.2901ZM455.328 60.1717C450.652 60.1717 446.616 61.8929 443.33 65.2698L446.197 68.0592C448.74 65.4456 451.747 64.1717 455.328 64.1717V60.1717ZM443.33 65.2703C440.041 68.6529 438.514 73.2551 438.514 78.8073H442.514C442.514 73.9976 443.819 70.5047 446.198 68.0587L443.33 65.2703ZM438.514 78.8073C438.514 84.3648 440.043 89.0195 443.292 92.5479L446.235 89.838C443.818 87.214 442.514 83.6116 442.514 78.8073H438.514ZM443.33 92.5876C446.616 95.9645 450.652 97.6857 455.328 97.6857V93.6857C451.747 93.6857 448.74 92.4118 446.197 89.7982L443.33 92.5876ZM455.328 97.6857C460.005 97.6857 464.012 95.9625 467.223 92.5673L464.318 89.8185C461.863 92.4138 458.907 93.6857 455.328 93.6857V97.6857ZM467.204 92.5876C470.564 89.1342 472.142 84.4989 472.142 78.9287H468.142C468.142 83.7204 466.806 87.2612 464.337 89.7982L467.204 92.5876Z" fill="url(#paint0_linear_874_638)" mask="url(#path-1-outside-1_874_638)"/>
<defs>
<linearGradient id="paint0_linear_874_638" x1="-23.3906" y1="68.824" x2="530.187" y2="68.824" gradientUnits="userSpaceOnUse">
<stop stop-color="#CF2CA4"/>
<stop offset="1" stop-color="#0CACD5"/>
</linearGradient>
</defs>
</svg>
