<svg width="11" height="15" viewBox="0 0 11 15" fill="none" xmlns="http://www.w3.org/2000/svg">
<path d="M0.292969 6.70727C0.105498 6.51975 0.000183117 6.26544 0.000183105 6.00028C0.000183094 5.73511 0.105498 5.4808 0.292969 5.29327L4.79297 0.793275C4.9805 0.605804 5.2348 0.500488 5.49997 0.500488C5.76513 0.500488 6.01944 0.605804 6.20697 0.793275L10.707 5.29327C10.8891 5.48188 10.9899 5.73448 10.9876 5.99668C10.9854 6.25887 10.8802 6.50969 10.6948 6.69509C10.5094 6.8805 10.2586 6.98567 9.99637 6.98795C9.73417 6.99023 9.48157 6.88943 9.29297 6.70727L6.49997 4.00027L6.49997 13.5003C6.49997 13.7655 6.39461 14.0198 6.20708 14.2074C6.01954 14.3949 5.76519 14.5003 5.49997 14.5003C5.23475 14.5003 4.9804 14.3949 4.79286 14.2074C4.60533 14.0198 4.49997 13.7655 4.49997 13.5003L4.49997 4.00027L1.70697 6.70727C1.51944 6.89475 1.26513 7.00006 0.99997 7.00006C0.734805 7.00006 0.480497 6.89475 0.292969 6.70727Z" fill="white"/>
</svg>
