<svg width="120" height="150" viewBox="0 0 120 150" fill="none" xmlns="http://www.w3.org/2000/svg">
<g clip-path="url(#clip0_916_649)">
<path d="M59.789 149.938C55.9715 149.938 52.1477 149.944 48.3302 149.938C44.4171 149.925 41.6831 148.153 40.1471 144.514C39 141.786 37.5215 139.543 34.7937 137.79C33.124 136.726 32.0915 133.826 31.8048 131.621C31.2312 127.128 31.6008 122.52 31.1292 118.008C30.6129 113.094 27.6558 109.474 23.8448 106.504C-9.94546 80.1187 -6.48486 29.1013 30.5365 7.77008C64.8875 -12.0251 109.811 7.86569 117.759 46.5637C122.749 70.8777 115.133 90.915 95.9565 106.466C90.2015 111.131 87.9835 116.918 88.194 124.005C88.264 126.446 88.3469 128.887 88.264 131.321C88.1494 134.731 86.7854 137.236 83.5352 138.969C81.9994 139.791 80.8521 141.856 80.1448 143.609C78.2519 148.319 74.9252 150.243 69.9604 149.976C66.5765 149.791 63.1796 149.944 59.789 149.938ZM59.6106 66.1615C64.3521 61.2477 68.176 57.2835 71.9935 53.3194C73.3 51.9619 74.9952 50.9996 76.2444 52.816C76.786 53.6062 76.1933 55.8623 75.3713 56.7737C71.8088 60.6933 67.8765 64.2815 64.2948 68.1819C63.2815 69.2844 62.4785 71.0498 62.4594 72.5219C62.3065 83.1398 62.3765 93.7575 62.3892 104.382C62.3892 105.395 62.4848 106.402 62.5423 107.606C68.3417 107.606 73.7652 107.371 79.1569 107.677C84.3192 107.97 88.2896 106.689 92.5467 103.222C112.82 86.7023 119.677 62.414 110.124 38.4698C99.6273 12.2059 68.3735 -1.70051 41.7785 8.05052C7.74627 20.5293 -5.31859 60.4129 15.3239 90.1885C19.7723 96.6 26.2921 101.584 31.8556 107.224C37.0306 107.352 42.2121 107.479 47.3869 107.6C48.4512 107.626 49.5092 107.6 50.5735 107.6H57.3608C57.3608 94.994 57.3865 82.904 57.3035 70.814C57.3035 70.03 56.5642 69.125 55.946 68.4877C52.1669 64.6192 48.3621 60.776 44.4873 56.9969C43.1298 55.6712 42.0654 54.1863 43.5631 52.6375C45.0352 51.1144 46.5904 51.9492 47.9031 53.4023C51.5804 57.4875 55.3342 61.509 59.6042 66.1487L59.6106 66.1615ZM36.9925 121.557C51.931 121.557 66.6719 121.57 81.4067 121.506C82.0375 121.506 83.1081 120.882 83.2294 120.372C83.7965 117.931 84.1087 115.433 84.5231 112.877H35.176C35.8006 115.86 36.3615 118.543 36.9925 121.551V121.557ZM36.6865 126.764C36.6865 128.402 36.6994 129.862 36.6865 131.321C36.6675 133.603 37.8846 134.578 40.0579 134.578C53.3204 134.591 66.5827 134.622 79.8452 134.622C82.0056 134.622 83.1975 133.495 83.2675 131.309C83.3121 129.855 83.274 128.402 83.274 126.764H36.6865ZM43.8244 139.619C45.2456 144.59 45.781 145.024 50.1783 145.03C56.8446 145.03 63.5108 145.043 70.1771 145.03C74.1731 145.017 75.2694 143.934 75.7535 139.626H43.8244V139.619Z" fill="url(#paint0_linear_916_649)"/>
</g>
<defs>
<linearGradient id="paint0_linear_916_649" x1="-5.06634" y1="73.4017" x2="126.67" y2="73.4017" gradientUnits="userSpaceOnUse">
<stop stop-color="#CF2CA4"/>
<stop offset="1" stop-color="#0CACD5"/>
</linearGradient>
<clipPath id="clip0_916_649">
<rect width="118.75" height="150" fill="white" transform="translate(0.5)"/>
</clipPath>
</defs>
</svg>
