<svg width="65" height="54" viewBox="0 0 65 54" fill="none" xmlns="http://www.w3.org/2000/svg">
<path d="M25.8206 22.0227C26.0202 22.2248 26.1263 22.5028 26.1061 22.7857C26.0884 23.0687 25.9469 23.3315 25.722 23.5058L22.2555 26.1789C22.0762 26.3178 21.8614 26.386 21.6517 26.386C21.3536 26.386 21.0605 26.2547 20.866 25.9995C20.5325 25.5649 20.6108 24.9434 21.0453 24.6099L23.6225 22.6215L21.3814 20.3653C20.9949 19.9763 20.9974 19.3497 21.3865 18.9631C21.7756 18.5765 22.4022 18.5791 22.7888 18.9681L25.8206 22.0227ZM19.5471 17.1364C19.0089 17.0404 18.4935 17.3991 18.3975 17.9373L16.8159 26.7699C16.7199 27.3081 17.0786 27.8235 17.6168 27.9194C17.6749 27.9296 17.7356 27.9346 17.7937 27.9346C18.2636 27.9346 18.683 27.5986 18.7689 27.1186L20.3506 18.286C20.444 17.7503 20.0852 17.2324 19.5471 17.1364ZM12.753 35.57H7.01513C6.46686 35.57 6.02474 36.0146 6.02474 36.5603C6.02474 37.1086 6.46942 37.5507 7.01513 37.5507H12.753C13.3013 37.5507 13.7434 37.106 13.7434 36.5603C13.7459 36.0121 13.3013 35.57 12.753 35.57ZM15.9997 24.6101L13.4251 22.6217L15.6661 20.3655C16.0527 19.9764 16.0501 19.3498 15.6611 18.9633C15.272 18.5767 14.6454 18.5792 14.2588 18.9683L11.2269 22.0204C11.0273 22.2225 10.9211 22.5004 10.9414 22.7834C10.959 23.0664 11.1005 23.3291 11.3254 23.5035L14.7894 26.1765C14.9688 26.3155 15.1835 26.3837 15.3932 26.3837C15.6914 26.3837 15.9819 26.2523 16.179 25.9972C16.5125 25.5676 16.4317 24.9461 15.9997 24.6101ZM26.3408 32.1264H7.01487C6.4666 32.1264 6.02448 32.5711 6.02448 33.1168C6.02448 33.6651 6.46916 34.1072 7.01487 34.1072H26.3408C26.8891 34.1072 27.3312 33.6625 27.3312 33.1168C27.3337 32.5711 26.889 32.1264 26.3408 32.1264ZM39.5273 21.9472C39.3959 21.3308 39.3302 20.689 39.3302 20.0448C39.3302 19.398 39.3959 18.7562 39.5273 18.1372C39.6081 17.7583 39.9012 17.4601 40.2777 17.3742L41.3515 17.1317C41.3667 17.0938 41.3818 17.0584 41.397 17.023L40.8083 16.0907C40.6011 15.7623 40.6036 15.3454 40.8159 15.0195C41.5208 13.9381 42.4278 13.0311 43.5118 12.3237C43.8377 12.1115 44.2571 12.1089 44.583 12.3161L45.5128 12.9048C45.5482 12.8896 45.5835 12.8745 45.6189 12.8593L45.8615 11.7855C45.9474 11.4065 46.2455 11.1134 46.6245 11.0326C47.8701 10.7698 49.2067 10.7724 50.4371 11.0326C50.8161 11.1134 51.1142 11.4065 51.2001 11.7855L51.4427 12.8593C51.4806 12.8745 51.5159 12.8896 51.5513 12.9048L52.4836 12.3161C52.8121 12.1089 53.2315 12.1115 53.5575 12.3262C54.6363 13.0337 55.5433 13.9407 56.2508 15.0195C56.4631 15.3454 56.4681 15.7648 56.2609 16.0933L55.6722 17.0256C55.6874 17.061 55.7026 17.0989 55.7177 17.1343L56.7915 17.3768C57.1705 17.4627 57.4636 17.7608 57.5445 18.1398C57.6759 18.7563 57.7416 19.398 57.7416 20.0473C57.7416 20.6916 57.6759 21.3334 57.5445 21.9498C57.4636 22.3288 57.1731 22.6244 56.7941 22.7103L55.7177 22.9554C55.7026 22.9908 55.6874 23.0287 55.6722 23.064L56.2609 23.9938C56.4681 24.3222 56.4656 24.7416 56.2534 25.065C55.5459 26.1489 54.6389 27.0559 53.5575 27.7608C53.2315 27.9731 52.8147 27.9756 52.4862 27.7684L51.5539 27.1797C51.5185 27.1949 51.4806 27.2101 51.4453 27.2252L51.2027 28.299C51.1168 28.678 50.8187 28.9711 50.4397 29.0494C49.8232 29.1808 49.1814 29.2465 48.5321 29.2465C47.8878 29.2465 47.2461 29.1808 46.6271 29.0494C46.2481 28.9711 45.9499 28.6755 45.864 28.299L45.6215 27.2252C45.5861 27.2101 45.5507 27.1949 45.5154 27.1823L44.5856 27.771C44.2571 27.9781 43.8403 27.9756 43.5169 27.7634C42.4304 27.0585 41.5234 26.1514 40.8185 25.065C40.6087 24.7391 40.6062 24.3222 40.8109 23.9938L41.3996 23.0666C41.3844 23.0312 41.3693 22.9933 41.3541 22.9579L40.2777 22.7128C39.9013 22.6219 39.6081 22.3262 39.5273 21.9472ZM41.3135 20.0448C41.3135 20.3404 41.3312 20.6334 41.3666 20.924L42.3192 21.1413C42.6577 21.2196 42.9331 21.4697 43.0418 21.8007C43.1403 22.1013 43.2641 22.3995 43.4106 22.685C43.5698 22.9957 43.5521 23.3697 43.3652 23.6653L42.8447 24.4889C43.206 24.9512 43.6279 25.3732 44.0903 25.7345L44.9165 25.2115C45.2146 25.0245 45.5886 25.0068 45.8993 25.1685C46.1797 25.3126 46.4753 25.4364 46.776 25.5349C47.107 25.6435 47.3572 25.9189 47.4355 26.2575L47.6502 27.2075C48.2339 27.2782 48.8352 27.2782 49.4138 27.2075L49.6286 26.2575C49.7044 25.9164 49.957 25.641 50.2905 25.5324C50.5937 25.4338 50.8893 25.3126 51.1698 25.166C51.4831 25.0043 51.857 25.022 52.1526 25.209L52.9788 25.732C53.4411 25.3681 53.8605 24.9488 54.2269 24.4838L53.7064 23.6627C53.5195 23.3671 53.5018 22.9932 53.6609 22.6825C53.81 22.3919 53.9313 22.0988 54.0222 21.8057C54.1284 21.4697 54.4038 21.2171 54.7474 21.1388L55.7025 20.9215C55.7378 20.6335 55.7555 20.3379 55.7555 20.0422C55.7555 19.7441 55.7378 19.451 55.7025 19.1605L54.7499 18.9457C54.4063 18.8674 54.1284 18.6122 54.0222 18.2761C53.9313 17.9831 53.81 17.69 53.6635 17.407C53.5018 17.0937 53.5194 16.7198 53.7064 16.4242L54.2269 15.598C53.8631 15.1357 53.4412 14.7137 52.9788 14.3499L52.1526 14.8704C51.8544 15.0574 51.4805 15.075 51.1698 14.9133C50.8868 14.7668 50.5937 14.6455 50.3006 14.5546C49.9646 14.4485 49.7094 14.1705 49.631 13.8269L49.4163 12.8744C48.8377 12.8062 48.2363 12.8037 47.6527 12.8744L47.4379 13.8269C47.3596 14.1705 47.1069 14.4485 46.7709 14.5546C46.4804 14.6481 46.1848 14.7693 45.8942 14.9159C45.5834 15.075 45.2095 15.0573 44.9139 14.8704L44.0928 14.3499C43.6279 14.7137 43.2084 15.1356 42.8446 15.598L43.3651 16.4242C43.5521 16.7223 43.5698 17.0963 43.408 17.407C43.264 17.6874 43.1402 17.983 43.0417 18.2862C42.933 18.6197 42.6576 18.8699 42.3166 18.9482L41.3665 19.1629C41.3311 19.4509 41.3135 19.7466 41.3135 20.0448ZM44.8179 4.0444H44.4945C43.9463 4.0444 43.5041 4.48907 43.5041 5.03477C43.5041 5.58303 43.9488 6.02514 44.4945 6.02514H44.8179C45.3662 6.02514 45.8083 5.58047 45.8083 5.03477C45.8083 4.48651 45.3662 4.0444 44.8179 4.0444ZM31.0203 16.2326V28.5294C31.0203 29.7219 30.05 30.6921 28.8575 30.6921H8.18747C6.99489 30.6921 6.02468 29.7219 6.02468 28.5294V13.3446C6.02468 12.3568 6.82814 11.5533 7.81601 11.5533H16.8687C17.7025 11.5533 18.3771 12.142 18.6273 13.092L18.885 14.0748H28.8548C30.0499 14.0723 31.0203 15.0426 31.0203 16.2326ZM29.0394 16.2326C29.0394 16.1391 28.9535 16.0557 28.86 16.0557H18.1217C17.672 16.0557 17.2779 15.7525 17.1641 15.318L16.7119 13.6C16.7068 13.5772 16.6993 13.557 16.6942 13.5393L8.00759 13.5368V28.5294C8.00759 28.628 8.09097 28.7088 8.18697 28.7088H28.857C28.953 28.7088 29.0364 28.6229 29.0364 28.5294V16.2326L29.0394 16.2326ZM41.4756 4.0444H41.1496C40.6014 4.0444 40.1592 4.48907 40.1592 5.03477C40.1592 5.58303 40.6039 6.02514 41.1496 6.02514H41.4756C42.0238 6.02514 42.466 5.58047 42.466 5.03477C42.4685 4.48651 42.0238 4.0444 41.4756 4.0444ZM64.1694 2.85948V30.669C64.1694 31.8236 63.2295 32.761 62.0723 32.761L53.669 32.7635V42.0255C53.669 43.9104 52.1354 45.444 50.2505 45.444H32.6632V47.4273C32.6632 49.3096 33.6839 51.0705 35.3288 52.018C35.7179 52.2429 35.9074 52.7002 35.7911 53.1323C35.6749 53.5668 35.2833 53.8675 34.8335 53.8675L19.6187 53.87C19.169 53.87 18.7773 53.5693 18.6611 53.1348C18.5449 52.7002 18.7344 52.2429 19.1235 52.0206C20.7683 51.0706 21.789 49.3121 21.789 47.4298V45.4465L4.20171 45.444C2.31685 45.444 0.783203 43.9104 0.783203 42.0255V10.7395C0.783203 8.85984 2.31685 7.32623 4.19912 7.32112L32.9012 7.25038V2.85924C32.9012 1.70458 33.841 0.762207 34.9982 0.762207H62.0703C63.23 0.762207 64.1694 1.7023 64.1694 2.85948ZM32.2185 51.887C31.2407 50.6263 30.6823 49.0623 30.6823 47.4277V45.4444H23.7718V47.4277C23.7718 49.0598 23.2134 50.6263 22.2357 51.887H32.2185ZM51.6886 40.9167H2.76613V42.0233C2.76613 42.8167 3.41041 43.461 4.20379 43.461L22.782 43.4635H50.2512C51.0446 43.4635 51.6889 42.8192 51.6889 42.0259L51.6886 40.9167ZM51.6886 32.7639H35.0004C33.8432 32.7639 32.9033 31.8241 32.9033 30.6719V9.23207L4.20644 9.30281C3.41307 9.30534 2.76626 9.9496 2.76626 10.7404V38.9341H51.6888L51.6862 32.7643L51.6886 32.7639ZM62.1863 9.30477H34.884V30.669C34.884 30.7271 34.937 30.7801 34.9977 30.7801H62.0697C62.1304 30.7801 62.1834 30.7296 62.1834 30.669L62.1863 9.30477ZM62.1863 2.85961C62.1863 2.79897 62.1307 2.74591 62.0726 2.74591H35.0005C34.9399 2.74591 34.8868 2.8015 34.8868 2.85961V7.32144H62.1892L62.1863 2.85961ZM38.1329 4.04453H37.8095C37.2612 4.04453 36.8191 4.4892 36.8191 5.0349C36.8191 5.58316 37.2637 6.02527 37.8095 6.02527H38.1329C38.6811 6.02527 39.1233 5.5806 39.1233 5.0349C39.1233 4.48664 38.6811 4.04453 38.1329 4.04453ZM43.6939 20.0449C43.6939 17.3743 45.8643 15.2015 48.5349 15.2015C51.2055 15.2015 53.3758 17.3743 53.3758 20.0449C53.3758 22.7154 51.2055 24.8857 48.5349 24.8857C45.8643 24.8832 43.6939 22.7129 43.6939 20.0449ZM45.6748 20.0449C45.6748 21.6214 46.9558 22.9024 48.5324 22.9024C50.1089 22.9024 51.3899 21.6214 51.3899 20.0449C51.3899 18.4658 50.1089 17.1823 48.5324 17.1823C46.9583 17.1823 45.6748 18.4658 45.6748 20.0449Z" fill="black"/>
</svg>
